<svg width="1920" height="477" viewBox="0 0 1920 477" fill="none" xmlns="http://www.w3.org/2000/svg">
<path d="M875.371 314.113C879.818 315.241 890.73 323.414 891.068 328.148C888.972 331.4 888.092 331.064 883.607 332.331C883.071 341.437 882.176 355.832 872.886 360.279C868.333 359.41 870.924 358.462 866.447 355.774C865.178 356.461 864.3 356.885 862.971 357.443C861.476 354.935 860.886 353.61 858.334 352.08L857.198 352.551C858.814 358.852 857.216 357.635 852.174 360.934C848.572 375.128 860.211 373.344 843.487 388.497C840.873 386.878 838.221 385.546 836.537 382.997C834.333 372.571 847.393 368.134 845.565 360.739L842.224 358.927C840.705 355.18 843.478 355.857 844.189 350.828C839.632 350.952 835.236 351.742 832 348.857C832.147 346.085 831.842 347.081 833.513 344.763C837.499 343.315 844.305 339.853 847.67 342.436C851.143 339.657 848.289 337.203 851.595 333.481L854.845 334.687C865.342 330.51 859.644 325.234 872.538 322.047C874.678 320.194 874.835 317.017 875.371 314.113Z" fill="#C4F5FC"/>
<path d="M847.874 153.376C852.503 154.076 853.615 154.073 855.727 158.382C854.898 164.179 849.588 164.788 850.565 171.09C855.023 171.284 857.213 166.581 861.904 166.666C864.596 174.763 853.412 178.389 850.304 182.606C849.478 185.96 849.333 184.861 850.116 187.801C853.868 188.5 855.054 188.671 858.436 190.41C860.473 193.499 859.672 193.388 859.154 198.036C861.159 202.333 861.648 200.107 866.145 203.74C868.42 210.048 860.697 220.395 857.541 225.004L858.61 228.459C859.051 228.61 859.677 229.199 860.079 229.525C855.705 232.657 855.763 230.704 851.064 235.789C838.445 231.076 844.076 219.989 844.031 210.88C844.017 208.208 839.167 210.051 836.903 209.021C835.556 205.618 837.23 200.139 838.023 196.36C836.54 194.3 833.043 190.031 832.916 187.816C835.409 182.931 851.757 183.266 843.32 168.838C842.076 166.711 848.416 162.405 848.159 161.542C846.96 157.511 846.072 158.074 847.874 153.376Z" fill="#C4F5FC"/>
<path d="M1665.12 246.878C1667.89 248.38 1686.39 268.499 1685.87 271.496C1679.26 272.699 1671.65 261.222 1664.33 260.64L1663.22 261.958L1663.55 265.08L1665.14 267.64L1664.84 268.905C1658.88 271.565 1645.76 275.527 1640.72 270L1640.99 268.397C1643.48 266.819 1644.81 267.219 1647.68 267.58C1651.22 265.65 1650.63 261.859 1653.71 259.912C1654.87 259.177 1660.95 258.699 1661.44 257.988C1663.02 255.664 1660.16 252.171 1665.12 246.878Z" fill="#C4F5FC"/>
<path d="M1820.27 264.005C1827.76 269.139 1830.86 264.149 1835.82 267.55C1837.27 273.547 1837.49 283.906 1830.41 286.121L1826.41 284.006C1823.62 282.483 1822.64 282.001 1819.58 281.033C1816.3 281.496 1814.87 282.825 1812.22 284.76C1815.38 274.756 1817.02 272.642 1820.27 264.005Z" fill="#C4F5FC"/>
<path d="M1463.74 222.464C1467.46 224.814 1471 227.781 1474.48 230.51C1472.51 232.29 1472.92 231.125 1470.14 230.668C1467.96 230.308 1466.78 231.883 1465.1 232.567C1454.01 237.061 1456.54 246.041 1444.57 247.896L1443.21 246.102C1443.07 241.188 1440.52 238.861 1441.34 236.377C1445.45 237.355 1446.87 238.357 1449.73 235.008C1450.43 230.04 1448.12 233.386 1446.91 228.342L1448.88 226.376C1457.74 223.816 1454.69 231.581 1463.74 222.464Z" fill="#C4F5FC"/>
<path d="M1846.77 243.276C1848.7 244.156 1851.47 249.431 1850.46 251.878C1844.93 250.954 1844.03 250.233 1839.92 254.177C1841.51 257.431 1846.49 253.806 1848.04 259.287C1845.6 263.244 1838.71 263.662 1834.61 262.134C1832.89 262.801 1831.81 262.87 1829.97 263.101C1826.61 262.29 1823.64 258.757 1821.12 256.231C1824.25 244.567 1834.57 255.383 1846.77 243.276Z" fill="#C4F5FC"/>
<path d="M1566.98 303.647C1567.81 303.751 1568.63 303.867 1569.46 303.994C1575.84 305.007 1581.4 312.015 1580.41 318.278L1576.78 318.705C1576.26 318.726 1575.73 318.743 1575.21 318.755C1568.67 318.907 1561.69 316.976 1561.61 309.352C1563.03 306.25 1564.24 305.604 1566.98 303.647Z" fill="#C4F5FC"/>
<path d="M1784.81 259.822C1790.67 259.355 1797.74 258.587 1802.07 263.029C1804.27 269.288 1801.67 271.912 1796.3 274.336L1794.78 273.532C1787.24 272.705 1791.71 276.211 1784.61 275.406L1783.83 274.095C1785.78 269.914 1790.45 270.049 1792 266.154C1790.28 264.474 1787.81 263.565 1785.6 262.566L1784.81 259.822Z" fill="#C4F5FC"/>
<path d="M1755.14 230.437C1755.9 230.325 1756.68 230.259 1757.45 230.239C1760.16 230.161 1762.77 231.228 1764.66 233.175C1769.13 237.788 1766.13 242.62 1762.33 246.075C1755.78 245.326 1750.95 243.07 1750.13 236.162C1751.85 231.99 1751.16 233.225 1755.14 230.437Z" fill="#C4F5FC"/>
<path d="M1687.4 245.194C1692.28 245.722 1705.89 255.29 1702.44 261.013C1699.02 260.955 1699.79 260.763 1696.65 258.288L1690.85 258.751C1690.78 260.334 1690.76 260.58 1690.26 262.112L1688.09 262.002L1687.13 260.88C1687.52 257.739 1689.69 256.443 1691.24 254.065C1694.07 249.727 1688.47 253.053 1687.4 245.194Z" fill="#C4F5FC"/>
<path d="M1761.21 246.754C1764.83 247.292 1766.16 248.111 1767.23 251.412C1766.5 254.319 1763.99 256.219 1761.78 258.338C1765.58 261.244 1765.56 257.663 1769.22 260.096C1765.79 263.385 1762.37 265.014 1758.15 262.262C1754.61 256.527 1757.66 251.412 1761.21 246.754Z" fill="#C4F5FC"/>
<path d="M1531.5 425.311C1531.15 424.938 1534.37 434.502 1535.29 436.242C1531.87 439.706 1529.99 441.343 1526.13 444.304C1524.78 443.875 1523.72 443.273 1522.46 442.627L1522.02 440.559C1523.51 434.243 1527.4 430.312 1531.5 425.311Z" fill="#C4F5FC"/>
<path d="M1530.77 305.958C1539.51 307.606 1541.77 311.16 1538.28 319.448C1533.66 318.533 1530.25 317.727 1528.38 312.979C1528.43 308.701 1528.42 309.864 1530.77 305.958Z" fill="#C4F5FC"/>
<path d="M1647.64 375.576C1651.73 375.394 1655.03 379.356 1655.55 383.221C1653.7 385.831 1653.97 385.14 1650.43 386.258C1649.69 386.016 1648.95 385.765 1648.22 385.503C1644.82 384.301 1642.94 383.59 1641.5 380.578C1643.31 377.283 1643.86 377.76 1647.64 375.576Z" fill="#C4F5FC"/>
<path d="M821.977 375.22C824.483 375.525 825.156 375.5 826.872 377.269C828.626 381.404 827.229 386.267 825.79 390.42L821.959 389.323C817.371 385.171 819.31 379.812 821.977 375.22Z" fill="#C4F5FC"/>
<path d="M919.029 174.573C919.83 174.932 921.069 176.006 921.804 176.593C924.443 183.11 924.997 186.283 919.549 191.054C917.242 189.402 915.997 188.762 914.973 186.056C914.483 182.298 917.231 178.061 919.029 174.573Z" fill="#C4F5FC"/>
<path d="M1915.67 440.051C1916.8 440.304 1917.37 441.036 1918.24 441.852C1920.31 447.25 1919.68 450.792 1914.67 453.505C1910.84 451.756 1909.94 451.409 1909.73 447.117C1911.02 443.871 1913.08 442.365 1915.67 440.051Z" fill="#C4F5FC"/>
<path d="M1437.18 82.3913C1438.58 82.1021 1439.49 82.5238 1440.83 82.9656L1441.29 84.4447C1433.07 89.4527 1439.35 86.4074 1439.8 94.7908C1434.54 94.4347 1430.7 94.0758 1430.92 87.8891C1432.03 84.903 1434.39 83.9854 1437.18 82.3913Z" fill="#C4F5FC"/>
<path d="M1481.43 214.333C1483.33 214.348 1482.61 214.068 1484.11 215.511C1484.22 220.172 1480.56 224.338 1475.93 225.012C1474.08 224.19 1472.36 223.636 1471.17 221.984C1472.25 218.549 1477.75 216.388 1481.43 214.333Z" fill="#C4F5FC"/>
<path d="M314.235 177.898C318.423 177.819 320.453 177.287 322.663 181.126C322.297 184.036 321.314 184.711 319.238 186.707C315.347 186.723 313.631 186.556 311.392 183.324C311.922 179.927 311.875 180.77 314.235 177.898Z" fill="#C4F5FC"/>
<path d="M919.905 155.768C926.196 157.837 923.099 167.969 921.21 172.119C914.023 168.548 917.888 162.057 919.905 155.768Z" fill="#C4F5FC"/>
<path d="M1461.22 173.366C1461.75 173.908 1463.1 176.326 1463.58 177.133C1463.56 179.928 1463.95 178.948 1461.95 181.03C1458.2 182.713 1456.73 182.084 1452.7 181.045C1451.55 180.36 1450.68 179.322 1449.76 178.343C1451.27 174.213 1454.59 180.471 1461.22 173.366Z" fill="#C4F5FC"/>
<path d="M1700.97 289.937C1702.54 289.03 1704.48 289.085 1705.98 290.08C1707.48 291.075 1708.29 292.836 1708.07 294.625C1707.84 296.414 1706.62 297.92 1704.92 298.511C1702.61 299.311 1700.07 298.229 1699.05 296.012C1698.04 293.793 1698.86 291.165 1700.97 289.937Z" fill="#C4F5FC"/>
<path d="M819.396 177.013C824.728 177.735 831.19 176.376 834.264 178.535L834.198 181.024C833.219 181.346 832.226 181.625 831.224 181.862C825.378 183.221 820.613 183.915 819.396 177.013Z" fill="#C4F5FC"/>
<path d="M871.458 137.192L872.949 138.144C873.669 141.723 872.675 149.374 871.436 152.873C864.542 150.072 868.534 141.488 871.458 137.192Z" fill="#C4F5FC"/>
<path d="M1682.99 207.399L1685.77 208.408C1686.97 211.675 1688.1 214.964 1689.17 218.275L1687.68 220.555C1685.29 218.171 1683.46 216.363 1681.36 213.72C1680.61 209.991 1680.67 211.168 1682.99 207.399Z" fill="#C4F5FC"/>
<path d="M1587.07 262.84C1590.72 264.955 1589.78 263.862 1591.97 267.481C1592.11 270.749 1591.77 271.3 1589.93 273.872C1587.28 272.595 1586.34 272.258 1584.89 269.587C1584.44 266.813 1585.67 265.261 1587.07 262.84Z" fill="#C4F5FC"/>
<path d="M373.137 172.657C376.069 172.291 379.337 171.545 381.711 173.184C383.033 176.632 382.557 176.041 381.893 180.041L379.076 180.498C376.406 179.368 374.646 175.339 373.137 172.657Z" fill="#C4F5FC"/>
<path d="M1619.08 201.365C1623.95 200.773 1629.05 203.453 1631.68 207.523C1626.01 208.538 1621.1 207.229 1619.08 201.365Z" fill="#C4F5FC"/>
<path d="M1905.36 298.536C1908.99 300.425 1914.82 302.805 1917.29 305.481C1913.85 305.988 1910.14 306.187 1907.17 304.284C1905.38 302.066 1905.39 301.408 1905.36 298.536Z" fill="#C4F5FC"/>
<path d="M0 0H1920V296.005C1913.48 295.355 1910.18 291.023 1905.27 296.046C1903.11 298.262 1901.58 302.42 1899.29 303.31C1897.96 302.781 1897.49 302.846 1897.12 301.321C1896.25 297.847 1894.17 298.343 1891.92 295.746C1894.63 291.681 1902.68 292.697 1903.87 287.274C1898.99 278.055 1886.76 286.233 1881.07 289.412L1878.77 283.452C1875.2 281.927 1875.75 287.184 1870.72 287.916C1868.17 285.879 1869.13 283.26 1867.92 278.601C1865.42 276.778 1866.56 277.172 1862.82 277.644L1861.66 279.219C1861.41 282.364 1862.69 284.098 1864.19 286.865C1862.31 291.477 1851.31 289.189 1847.84 292.086C1847.13 292.682 1846.83 296.936 1846.74 297.991C1836.07 296.06 1840.06 301.367 1826.79 305.75L1835.38 296.623C1836.67 282.689 1836.16 280.988 1849.77 280.32L1850.46 281.158L1849.22 284.217L1851.13 284.348C1856.12 281.333 1858.17 277.399 1861.23 272.478L1865.35 272.274L1865.72 270.523C1865.31 270.064 1864.91 269.596 1864.54 269.116C1860.82 264.385 1868.85 263.587 1864.65 258.825L1862.62 258.893L1860.27 262.126L1858.4 258.496C1857.74 257.515 1857.53 257.483 1856.41 257.12L1853.09 259.674L1851.51 258.718C1848.62 251.44 1859.38 250.039 1861.58 241.45C1861.35 238.338 1860.79 237.784 1858.75 235.571C1849.6 244.251 1856.38 240.191 1857.08 245.594L1855.54 246.917C1851.39 246.108 1851.97 243.129 1847.4 239.215C1846.18 239.988 1842.53 242.853 1841.72 242.995C1838.91 243.484 1824.63 244.279 1822.65 246.079C1818.75 249.637 1813.57 259.6 1807.41 260.148C1804.94 257.219 1808.87 250.016 1803.76 246.274C1794.69 246.237 1795.75 256.998 1787.11 256.654C1783.88 254.399 1784.68 255.517 1783.07 252.086C1784.75 243.957 1790.41 251.49 1793 242.574C1794.56 237.162 1790.75 239.315 1790.33 234.6L1794.05 234.088L1794.29 232.704L1789.78 231.303L1789.46 230.103L1791.46 228.411L1791.53 226.983L1788.66 226.251L1788.55 221.046C1785.95 217.363 1784.85 222.607 1777.61 221.009C1777.45 220.893 1777.29 220.775 1777.14 220.654C1770.82 215.747 1772.82 207.375 1769.72 200.881C1769.22 199.832 1763.63 197.949 1762.91 194.066L1766.05 190.569L1765.75 189.342C1759.97 187.601 1760.19 191.261 1756.48 189.517C1757.31 186.591 1757.36 187.163 1759.73 184.948L1759.73 183.813C1750.11 180.129 1754.33 194.14 1750.72 199.071C1741.57 204.284 1735.05 193.111 1727.09 198.788C1723.2 204.078 1725.07 210.384 1725.41 216.7C1725.59 219.944 1728.34 219.984 1731.08 221.936C1731.31 225.136 1729.6 224.894 1727.19 228.934C1729.4 235.696 1734.57 230.886 1735.31 233.791C1738.25 245.436 1749.13 236.96 1750.44 244.359C1745.77 255.391 1742 241.991 1734.35 250.849C1733.27 252.104 1729.86 247.126 1727.26 246.392C1723.94 245.452 1714.93 250.185 1712.77 247.932C1711.75 234.039 1724.02 220.337 1704.02 215.299C1701.74 214.724 1700.07 209.45 1699.25 207.315C1694.02 205.373 1688.83 203.217 1689.28 196.611C1693.94 194.219 1708.91 198.697 1716.01 200.072C1717.79 196.917 1720.08 193.073 1721.51 189.774C1722.93 186.529 1720.24 188.634 1718.17 184.667L1719.42 182.882C1726.67 178.756 1739.75 175.697 1748.11 174.289C1752.92 173.48 1755.24 178.646 1759.6 180.066C1763.66 181.387 1772 179.691 1775.94 182.09C1778.88 183.88 1776.54 187.02 1779.9 189.644C1783.32 186.752 1784.22 178.736 1787.95 175.625L1789.06 176.582C1789.71 179.555 1790.44 181.57 1789.45 184.46C1786.5 185.544 1785.45 185.608 1784.6 188.608C1786.42 190.507 1787.58 190.603 1790.1 191.173C1793.35 189.037 1799.47 184.022 1801.72 180.915L1801.27 179.594C1793.18 177.179 1795.16 177.826 1788.42 172.679C1784.1 171.031 1778.53 170.396 1773.95 170.818C1774.07 170.806 1772.14 174.214 1769.87 175.052C1766.43 173.339 1769.76 172.428 1767.2 169.59C1764.98 170.214 1762.77 170.895 1760.59 171.634C1757.24 170.443 1757.45 169.171 1755.1 165.321C1751.97 165.36 1754.11 169.038 1749.88 170.568C1742.18 168.963 1739.4 155.044 1737.25 148.203C1727.86 145.797 1727.05 144.314 1718.69 139.661C1712.75 136.351 1712.58 143.973 1707.72 145.911C1704.48 144.167 1707.04 143.125 1704.45 141.28C1699.9 144.737 1700.4 145.417 1695.54 142.718C1692.16 143.414 1683.22 152.659 1679.74 155.656L1682.7 158.683C1683.04 162.086 1678.14 168.233 1677.96 170.111C1677.1 178.553 1678.29 180.129 1675.35 188.5C1676.72 190.828 1677.79 192.307 1678.12 195.025C1671.79 199.987 1663.89 192.817 1656.5 199.061C1654.94 204.312 1656.7 202.598 1657.08 207.674C1657.5 213.316 1652.2 210.693 1649.24 214.085C1650 216.982 1649.38 216.373 1651.43 217.747L1655.22 216.867L1655.98 217.681L1655.31 220.23C1651.58 223.025 1651.27 219.694 1647.64 221.329C1646 227.036 1652.53 231.909 1656.36 236.13C1652.08 240.028 1647.82 242.896 1647.4 248.746C1649.39 250.6 1650.88 251.558 1653.1 253.065L1653.37 254.693L1652.03 256.015C1647.68 254.677 1641.86 258.103 1639.43 256.457C1641.54 250.073 1642.52 247.952 1637.95 242.442L1637.75 242.186C1638.21 239.134 1639.91 238.324 1642.44 235.673C1641.23 230.14 1635.82 217.693 1637.31 213.882L1640.84 213.458C1642.02 208.705 1634.31 200.451 1638.34 194.205C1644.47 192.291 1646.62 198.114 1652.6 192.917C1653.76 190.261 1654.33 189.286 1653.71 186.358C1651.94 183.03 1649.03 182.371 1645.56 180.331C1647.19 175.41 1651.26 177.336 1653.2 173.589C1654.58 170.906 1654.21 165.423 1651.3 163.817C1649.35 164.873 1647.37 165.879 1645.36 166.834C1640.91 164.49 1643.63 158.15 1639.6 153.762C1636.49 152.762 1635.2 154.313 1631.55 156.135C1627.64 152.784 1621.92 149.173 1623.52 144.076C1628.09 141.371 1629.59 146.15 1633.86 141.323C1634.5 138.164 1634.78 139.195 1633.28 136.803C1630.49 135.255 1628.08 135.814 1625.29 135.909C1617.1 136.191 1618.89 142.446 1614.77 145.211C1611.12 146.71 1605.97 146.15 1603.31 149.476C1600.67 152.786 1602.12 163.039 1605.38 165.797C1609.66 165.303 1608.26 162.389 1611.59 161.566L1612.2 163.526C1610.32 168.37 1606.42 167.668 1604.5 171.669C1601.84 177.226 1606.18 179.161 1607.38 182.643C1610.43 191.514 1609.19 209.26 1611.64 217.02C1615.1 219.99 1621.38 210.448 1630.48 212.885C1632.8 215.021 1632.18 213.995 1632.98 217.043C1631.41 219.826 1624.13 221.184 1621.3 223.676C1620.9 224.034 1619.51 225.799 1619.57 226.046C1621.22 233.401 1624.28 247.738 1623.56 255.026C1621.25 259.056 1620.69 257.492 1616.32 260.829C1610.68 271.329 1618.06 274.654 1619.65 283.215C1620.06 285.4 1618.08 286.473 1616.18 288.609L1616.33 291.026C1619.63 292.342 1623.58 288.3 1628.63 289.791C1630.77 292.152 1630.17 291.554 1630.71 295.071C1629.21 297.881 1621.18 303.916 1617.63 307.344C1614.59 303.79 1611.32 300.228 1608.19 296.73C1610.55 294.454 1612.57 292.808 1613.87 289.786C1613.19 287.051 1613.66 287.955 1610.67 286.132C1601.34 286.025 1604.75 292.605 1598.81 294.391C1591.68 296.537 1595.96 297.976 1591.83 300.696C1589.57 299.982 1588.87 299.059 1587.5 297.362C1583.17 292.068 1587.95 294.056 1588.4 289.521L1585.26 286.012C1584.02 278.781 1592.42 279.602 1596.68 275.605C1598.53 273.874 1601.1 268.88 1602.38 266.483C1602.39 264.114 1602.44 264.993 1599.16 263.755C1594.37 261.948 1590.27 249.862 1586.53 246.794C1583.78 244.541 1578.92 246.808 1575.53 242.08C1575.1 238.155 1574.71 239.298 1576.39 235.991C1581.55 233.376 1583.38 239.151 1588.03 241.047C1589.01 241.444 1594.55 241.398 1595.86 241.385C1597.87 242.294 1601.68 248.668 1604.02 251.174L1605.76 251.061C1608.66 248.932 1609.97 244.414 1611.32 240.968C1606.87 238.475 1599.9 236.079 1594.99 234.212C1596.95 229.563 1597.71 228.746 1601.23 225.102C1601.57 223.532 1602.27 222.7 1600.89 221.785C1594.93 217.831 1601.82 214.616 1600.27 209.014C1595.78 205.11 1594.84 211.323 1590.58 203.028C1582.39 201.302 1562.67 211.704 1557.07 218.04C1557.49 220.075 1558.21 221.47 1559.06 223.333C1558.38 226.775 1558.92 225.534 1556.32 228.355C1553.17 229.286 1554.44 229.285 1551.22 228.21C1548.47 225.809 1548.3 224.917 1547.41 221.384C1540.31 222.137 1541.18 235.481 1530.49 234.147C1515.55 220.027 1549.36 221.76 1544.56 207.506C1541.6 205.612 1542.89 206.021 1539.3 205.944C1533.48 208.982 1535.4 216.63 1530.5 218.201C1528.04 216.117 1529.45 209.353 1523.76 205.293C1518.76 206.434 1513.12 208.949 1512.13 214.26C1512.98 218.202 1515.24 220.533 1517.77 223.631C1514.39 225.561 1512.91 226.382 1509.26 227.666C1507.4 226.502 1508 223.953 1506.65 220.614C1502.98 222.037 1505.15 231.561 1499.3 235.413C1496.52 235.4 1497.53 235.65 1495.11 233.985C1492.26 223.72 1502.98 224.967 1499.03 212.649C1495.15 210.278 1496.03 214.452 1491.04 212.678C1491.51 213.27 1484.63 196.796 1484.76 197.485C1486.28 196.924 1487.8 196.318 1489.29 195.667C1495.54 192.916 1497 185.449 1499.67 178.577L1510.12 176.755C1512.34 171.033 1518.89 162.362 1518.77 157.373C1516.29 157.952 1512.95 161.789 1510.63 163.868L1508.95 163.563C1506.74 161.103 1506.8 160.509 1506.04 157.788C1503.77 154.695 1511.71 148.393 1511.42 147.236C1509.7 140.452 1512.25 143.419 1517.57 140.624C1518.96 139.894 1521.67 135.595 1523.07 133.503C1518.5 123.972 1517.32 122.745 1510.07 115.237C1514.35 112.255 1520.77 109.587 1518.45 104.113C1515.37 101.884 1516.41 101.93 1513.17 102.248C1509.45 105.078 1509.19 107.897 1506.53 111.811C1502.24 112.341 1500.94 108.812 1497.21 109.152C1497.4 111.368 1497.51 111.965 1496.92 114.094C1490.76 117.062 1486.11 115.294 1485.72 108.121C1488.94 105.563 1488.9 109.004 1492.78 107.009L1492.8 105.165C1490.03 99.7877 1485.6 98.9527 1479.93 96.8741L1479.51 95.4515C1483.21 92.4814 1489.37 93.5353 1494.36 93.7563C1496.42 95.4618 1496.43 97.6829 1497.28 100.713L1498.41 101.18C1500.76 97.6041 1500.44 96.8179 1503.76 95.31C1507.05 96.1047 1506.08 95.7214 1508.23 99.0782L1509.21 98.4504L1508.98 95.4244C1503.74 88.3128 1492.27 91.96 1497.67 81.2395C1492.97 72.6805 1484.99 65.0163 1474.63 64.3416C1472.84 64.2248 1466.48 67.0517 1464.52 67.8976C1463.56 66.9577 1462.56 66.0636 1461.51 65.2183C1450.27 56.1014 1450.69 61.2461 1443.61 61.9937C1438.97 58.8274 1443.06 53.8197 1439.02 49.9276C1436.98 49.7494 1430.33 52.5617 1429.63 54.3837C1432.88 54.7175 1435.23 54.395 1437.55 56.0719C1430.95 67.6205 1415.9 47.8293 1411.65 64.0478C1410.47 68.5561 1420.23 68.1586 1422.98 71.8015L1422.3 74.0915C1419 75.3792 1418.62 71.7936 1414.98 72.4407C1410.68 77.5001 1416.07 76.8902 1416.22 81.6599C1407.31 85.7654 1407.67 82.62 1402.92 92.4791C1388.29 80.737 1385.72 91.8411 1377.01 85.3046C1377.23 83.4074 1377.5 81.6744 1377.81 79.7902C1376.01 77.7849 1376.13 78.3241 1373.01 77.8896C1370.26 80.2598 1373.04 81.9259 1370.64 84.7103C1361.27 86.8903 1359.32 71.1381 1347.31 84.2204C1346.63 84.9727 1330.58 84.5254 1326.28 84.6957C1319.62 80.7889 1309.24 76.9336 1302.55 82.7552C1303.47 85.2679 1307.29 87.1722 1310.06 89.4318L1309.69 90.4983C1304.62 90.953 1300.48 83.2977 1294.19 85.5938L1292.31 89.9854C1289.04 90.7587 1285.67 88.0755 1282.1 88.0649C1276.73 88.049 1265.97 90.6443 1261.14 89.2926C1254.81 87.5175 1245.22 74.0998 1241.87 68.3782C1219.09 61.7526 1234.46 50.0329 1228.33 41.0581C1225.6 39.5761 1224.93 39.161 1221.74 39.1554C1217.26 42.3387 1220.86 45.5765 1216.29 50.2949L1214.43 50.16L1213.98 46.7874L1212.64 46.5898L1210.94 48.4641C1206.45 49.6827 1207.6 44.7585 1200.29 47.2186C1195.12 54.5254 1185.27 81.3397 1181.7 90.7593C1180.56 93.7994 1186.08 113.625 1180.36 117.805C1179.13 116.714 1178.18 115.682 1176.61 115.239C1172.59 122.089 1172.19 117.135 1169.33 121.836C1169.18 124.657 1169.61 125.892 1170.28 128.565L1169.01 130.493C1168.01 130.933 1166.79 131.48 1165.33 132.131C1158.21 132.078 1147.85 117.483 1141.92 115.724C1135.9 118.5 1129.57 132.353 1124.75 137.457C1124.39 138.789 1118.35 139.469 1118.22 139.611C1108.2 150.411 1105.61 158.327 1095 143.163C1085.42 145.799 1083.31 145.9 1073.69 143.681C1070.6 146.763 1067.52 149.863 1064.46 152.981C1056.57 151.762 1048.94 150.848 1041.05 149.47C1040.76 147.139 1040.49 145.565 1039.96 143.278L1038.34 142.585C1032.59 145.11 1041.31 150.069 1037.47 157.305C1031.85 159.648 1031.49 153.988 1027.54 153.263C1027.95 155.36 1029 156.663 1030.18 158.412L1029.46 159.26L1025.75 159.255L1025.06 160.061C1027.73 162.899 1037.64 171.654 1032.22 175.424C1024.9 180.507 1021 171.534 1017.1 170.603C1011.14 178.12 1023.3 181.91 1024.81 189.441C1019.92 196.927 1017.11 186.303 1012.74 199.408C1010.55 206.015 995.634 206.679 988.134 208.784C985.463 207.734 983.512 206.832 980.944 205.554C978.028 200.991 982.528 200.468 978.122 197.256C977.4 199.551 977.259 200.438 975.581 202.127C966.684 202.44 958.913 179.655 957.188 172.311C956.044 167.455 954.881 154.837 957.534 150.819C962.962 142.606 966.197 145.064 963.712 134.321C967.069 126.773 971.681 132.867 977.175 129.427C979.294 124.833 974.334 98.9049 971.231 96.6108L969.328 97.0971C968.437 99.5112 968.053 101.04 967.472 103.5L966.094 104.16C962.297 102.553 963.872 100.267 962.006 98.4579C956.128 92.7557 935.599 106.968 930.699 110.478C924.966 108.488 919.16 105.679 913.403 107.474C910.185 110.225 910.489 110.12 909.94 114.972C894.406 109.093 903.707 119.222 895.494 124.877L892.257 122.888L890.625 123.438C887.79 128.056 894.194 128.066 888.203 131.722C884.891 131.05 884.774 129.497 881.858 126.567C878.947 128.501 882.465 128.289 881.06 132.864C878.163 134.913 874.523 134.03 870.056 134.864C866.615 138.208 868.232 139.291 865.348 144.48C860.216 148.852 851.14 146.077 841.397 147.483C837.787 152.59 835.998 156.827 833.384 162.477C834.125 162.016 834.871 161.564 835.623 161.121C838.816 159.243 839.439 158.9 842.558 159.709L842.996 161.559C842.165 165.228 839.397 167.84 836.886 170.642C831.979 168.279 822.681 162.472 818.054 165.483L817.349 169.941L816.238 170.319C812.294 164.911 811.858 168.687 808.889 165.381L809.895 162.056C808.168 160.399 804.073 163.821 802.544 163.24C795.083 160.405 793.101 156.525 784.871 161.675L785.118 163.719C787.76 166.212 797.007 168.036 801.798 171.002C798.939 173.118 799.992 176.083 797.438 178.49C795.325 177.019 795.618 174.653 794.489 171.172L793.152 170.844L790.033 175.762C785.945 176.249 778.995 171.514 775.248 171.995C769.993 172.668 769.142 178.26 761.488 176.923C756.263 176.168 756.367 180.817 754.31 181.992C741.661 189.213 726.976 185.851 714.694 186.738C711.225 184.666 708.905 184.306 705.406 182.057C704.388 178.991 704.911 179.31 705.99 175.716C704.514 174.087 700.62 174.02 697.875 173.496C698.753 167.936 719.199 159.875 716.485 153.408C712.147 152.214 712.429 155.009 706.321 154.453C702.321 151.911 706.778 150.548 703.581 149.012C699.413 147.012 693.083 147.908 690.17 143.598C693.224 142.976 697.621 142.862 700.837 142.683L701.038 141.646L699.993 140.153L695.609 141.386C693.376 140.261 691.246 135.63 689.912 133.219C685.296 134.773 680.838 136.643 675.203 135.74C667.118 134.444 656.645 130.789 648.578 128.543C647.395 127.02 646.41 125.752 645.623 124.739C642.049 124.548 642.72 124.845 639.226 126.833C635.469 126.855 639.193 125.653 635.451 122.396C632.263 122.747 630.282 124.95 627.837 127.077C618.622 128.788 605.104 130.005 596.319 126.467C592.075 124.758 588.682 122.329 584.074 121.33C582.454 122.124 582.621 121.899 582.296 123.821C581.26 129.945 578.018 125.857 574.223 128.836C574.555 131.976 574.742 133.934 574.68 137.109C572.851 138.223 556.328 128.549 548.918 134.077L551.49 136.995L551.144 137.977C546.886 139.591 546.091 138.515 543.231 135.912C540.505 136.382 538.512 139.527 536.618 141.812C537.206 142.141 537.792 142.476 538.374 142.815C545.779 147.149 538.753 147.448 547.262 152.281C538.797 159.71 540.21 148.842 533.023 145.17C529.847 144.885 526.927 146.638 523.969 148.008C521.907 145.26 528.111 141.495 524.065 138.559C518.972 138.952 517.292 144.188 511.404 144.584C509.855 144.689 507.677 147.656 506.793 149.249C506.13 159.586 515.064 158.107 517.942 162.927L517.328 164.473C510.949 165.446 512.716 161.669 507.734 162.378L508.257 163.817L512.892 165.785L513.594 167.923L512.807 169.017C497.872 160.493 490.096 165.794 476.046 158.079C473.427 156.641 473.4 154.864 472.862 152.362C475.522 151.15 474.547 154.108 478.988 153.592C479.455 150.394 476.671 150.655 476.74 147.122C482.476 149.085 489.564 163.018 498.093 154.166C498.922 151.05 498.949 152.282 497.925 149.179C495.621 148.628 493.184 151.229 490.355 152.961L488.359 152.351L487.619 150.569C488.504 149.662 489.384 148.749 490.259 147.832C484.353 138.74 474.004 146.211 467.889 150.14C468.013 151.873 468.134 152.435 467.605 154.116C458.103 157.226 444.589 138.104 435.174 136.869C433.794 136.688 430.582 135.528 429.064 135.073C424.894 129.632 421.316 127.113 415.772 123.061C415.843 123.114 414.999 118.855 414.713 118.024C412.68 112.125 410.154 117.238 404.172 114.15C401.99 114.462 402.386 114.054 401.324 115.431C404.305 116.637 406.609 117.387 409.101 119.454C409.948 125.584 401.057 127.029 397.063 123.569C392.212 119.365 396.662 114.482 396.248 108.747C391.703 102.868 386.471 106.319 381.977 109.557C385.045 111.238 389.44 113.295 391.556 115.897L391.214 117.603L389.213 118.233C385.909 117.253 383.329 114.503 380.629 112.408C378.13 110.468 380.359 108.75 377.269 106.27L375.289 106.564C375.128 109.896 376.316 109.611 378.023 113.504C377.177 115.825 377.728 115.085 375.179 116.369C372.676 116.036 372.247 115.849 369.983 114.699C365.217 116.792 361.415 127.164 356.842 129.049C354.477 130.023 354.287 123.948 351.045 122.185C349.358 124.713 350.314 130.652 350.864 133.349C356.414 160.548 358.444 149.905 378.074 160.805C380.575 162.194 381.853 164.781 382.337 167.707C381.005 170.193 381.341 169.485 378.665 171.236C373.221 169.204 376.912 159.117 363.87 160.58L363.57 160.616L363.295 164.561C360.458 164.949 359.457 165.215 356.949 163.64L356.92 162.244C359.411 160.4 361.103 159.952 361.477 157.578C357.848 154.647 350.457 159.673 350.335 153.485C350.268 150.048 350.458 150.626 348.655 148.392C340.68 144.557 326.813 147.83 313.672 143.38C314.25 146.112 317.128 151.455 318.487 154.192C315.062 157.029 311.213 160.368 306.758 161.331L305.287 159.594C306.677 156.403 310.272 149.295 309.841 146.098L308.696 144.924C305.35 144.976 306.185 144.492 303.955 146.239L303.603 149.979C298.757 152.837 291.719 146.579 286.669 153.148C286.893 159.464 294.944 165.86 300.867 165.91C302.819 164.586 303.124 163.712 304.236 161.596C306.725 162.182 306.291 162.365 308.306 164.425L308.607 166.132C304.904 169.585 294.82 175.636 290.723 180.093C288.767 182.222 280.612 174.185 274.053 187.387C274.531 191.103 277.128 191.716 273.647 196.576C272.213 198.581 269.396 201.262 267.611 203.064C265.044 203.687 262.488 204.35 259.942 205.053C259.282 206.282 257.129 210.316 256.147 210.759C250.235 213.424 237.098 220.202 231.14 217.001C231.4 214.6 231.613 212.194 231.776 209.783C229.462 210.912 221.632 215.27 220.273 217.132L220.814 218.324L225.216 217.394C231.322 222.185 231.901 222.296 240.168 223.49C241.004 223.61 240.741 228.284 240.707 229.018C250.684 233.386 259.19 206.582 271.407 211.591L272.911 213.218C272.656 216.605 271.929 217.087 269.558 220.056C267.964 222.052 258.823 222.306 257.415 223.279C251.276 227.52 241.894 238.259 237.337 244.023C235.686 242.219 236.176 241.121 236.034 238.238C226.789 237.877 231.014 253.945 232.793 258.605C223.379 265.659 230.612 266.38 225.831 272.693C222.981 274.372 224.134 274.213 221.18 273.642C219.042 270.988 219.405 272.156 219.475 268.981L223.546 263.658C222.51 260.357 221.486 256.942 220.383 253.673C225.552 249.316 230.289 247.217 229.766 239.858L228.749 239.163L227.233 239.883L227.412 242.864L226.118 243.379L225.919 242.965C225.126 241.355 224.945 241.061 223.567 239.948C221.028 240.278 220.593 239.843 218.814 242.122C217.61 243.666 212.841 263.381 212.93 263.756C215.293 273.793 215.117 266.736 212.255 274.017C216.294 276.519 219.281 274.542 221.976 277.57C222.398 280.644 222.656 286.484 224.311 288.462C227.441 285.395 224.475 280.274 229.457 279.421C233.451 289.962 227.189 291.585 218.854 295.154C216.305 296.247 219.4 299.013 218.315 300.954C217.339 302.698 216.048 302.953 214.512 304.085C202.357 319.325 202.231 313.351 185.854 309.573C181.699 310.721 174.913 311.011 172.729 312.597C172.721 314.395 172.327 315.386 173.435 316.28C179.217 320.949 183.968 321.595 190.477 326.658C183.89 326.394 180.323 324.939 175.712 329.173C175.357 329.499 175.008 329.832 174.666 330.171C171.428 327.767 174.648 325.848 170.799 324.628C161.559 328.114 153.911 330.121 143.768 325.617C143.136 325.336 142.518 325.025 141.914 324.687L141.313 326.184C146.956 332.523 148.563 327.639 140.007 337.541C138.914 338.807 131.197 339.761 129.107 338.961L128.5 337.324L129.639 335.839C133.286 335.412 136.781 336.063 137.964 332.023L137.379 330.941C135.377 331.841 134.96 332.069 133.238 333.428C131.954 330.987 131.565 330.15 129.529 328.158C126.939 327.713 127.714 327.486 125.644 328.497C124.987 332.242 125.701 331.329 123.257 333.56C116.578 334.523 118.375 328.075 112.375 335.095C109.069 345.367 129.4 379.735 95.0822 381.353C85.5457 381.801 50.7508 377.556 45.6999 370.307C43.6504 364.828 48.3111 366.67 45.1779 358.268L43.9939 357.85C39.9173 363.049 45.3888 370.843 39.8367 373.042C31.3932 369.473 41.8364 362.298 34.2819 357.721C30.7808 357.639 31.9136 357.223 29.3313 358.976C27.9248 362.339 27.8398 363.933 27.4117 367.537L26.1352 367.845C23.6349 365.68 23.9628 364.526 22.8725 360.878C19.4549 363.27 18.0158 366.659 15.6313 368.521C11.7412 371.561 4.4316 375.376 0 377.809V0Z" fill="#C4F5FC"/>
<path d="M1858.4 258.496L1860.27 262.126C1858.28 265.858 1847.07 273.615 1843.31 268.331C1848 263.431 1856.69 267.172 1858.4 258.496Z" fill="#C4F5FC" fill-opacity="0.968627"/>
<path d="M363.295 164.561L363.57 160.616C367.679 165.05 371.721 167.949 376.008 171.906C370.999 170.013 366.964 168.712 363.295 164.561Z" fill="#C4F5FC" fill-opacity="0.980392"/>
</svg>
