<svg width="1280" height="250" viewBox="0 0 1280 250" fill="none" xmlns="http://www.w3.org/2000/svg">
<g clip-path="url(#clip0_180_3499)">
<path d="M0 0L740.456 0L766.223 0L1279.3 0V9.92887V15.9746V250H0L0 44.4329L0 36.5687L0 0Z" fill="#F9F9F8"/>
<path d="M1260.07 20.9472C1262.15 20.0421 1261.91 15.7817 1265.61 13.0197C1267.05 10.8888 1272.49 12.0181 1273.64 11.3801C1277 9.52612 1274.69 9.68437 1279.3 9.92887V15.9746V250H0L0 44.4329C0.093285 44.4786 0.186922 44.5236 0.280903 44.5679C7.07767 47.7507 6.79289 40.0649 12.4197 38.0286C13.4192 41.0712 13.7499 41.6075 15.9489 43.9187C14.0224 47.5959 7.72819 46.6935 8.11598 50.0609C18.2466 54.6546 16.5066 47.2716 24.3575 48.1149C26.1045 49.2537 25.6151 48.8877 26.5469 50.8984L27.6357 50.9561C28.235 50.2277 28.5146 49.7077 28.9807 48.8906C30.9373 48.1052 32.9842 48.7943 34.9021 48.5924C35.6174 48.5172 35.5252 47.9086 37.8005 47.6397L37.9864 47.7071C40.2266 48.5073 41.5948 48.3864 43.9101 48.0611C50.182 47.1798 45.4391 40.6076 53.2088 42.5851C54.9172 43.0199 56.2724 37.3547 60.3267 38.552C60.0672 41.2532 57.0726 40.7704 60.3882 42.5055C59.5112 43.5335 58.2825 43.138 58.2236 43.2329C53.6637 50.5757 58.736 53.7226 48.6439 54.516C47.9155 54.5707 47.1861 54.6116 46.4561 54.6384C46.2976 53.3016 46.4642 53.5146 47.2151 52.1456C44.0623 52.1356 43.9269 53.8917 42.0498 56.0001C40.4538 57.7926 37.9909 59.4074 35.9992 60.7736C37.5885 67.8063 34.028 66.9444 36.4612 70.3562L37.7253 70.7575L39.6041 69.8812L40.7953 71.8844L41.6266 71.9025L43.7763 69.5681L44.1751 68.6375C46.1789 68.7762 47.4216 68.5044 49.398 68.1719C53.8377 65.2025 65.1829 66.2081 66.4978 73.1044L65.4478 75.9613L67.501 76.1856C69.0308 73.4313 69.4862 76.2169 71.3589 72.0631L73.97 71.7137C74.5953 70.7037 75.115 69.5431 76.2106 69.1919C79.0822 70.7719 76.8203 75.6281 78.7823 78.7794C84.3849 81.3737 85.295 70.6037 91.2605 71.7562C92.719 73.1294 93.102 73.4512 93.5736 75.3906C91.6834 79.7087 86.4719 78.2944 86.1776 84.3625C87.372 87.2531 88.9936 85.0231 88.3577 87.2631L86.4325 87.7825L86.3457 88.9262C86.5962 89.1019 88.6363 90.525 88.6407 90.5337C90.2135 93.4237 87.5263 98.2781 93.3387 97.9062C94.5437 96.8375 95.4013 95.9956 96.8274 95.2125C101.519 96.9106 101.995 107.142 103.8 111.155C104.826 113.436 107.959 113.338 108.696 116.214C107.956 117.302 107.175 118.363 106.357 119.394L107.049 120.087C108.888 119.681 109.985 119.406 111.87 119.352L112.518 120.264C111.894 121.248 111.343 122.112 110.644 123.054C111.345 124.044 111.661 124.089 112.845 124.447C118.389 122.174 112.635 114.911 118.451 111.839C123.515 111.442 130.463 115.975 134.424 111.563C138.057 107.518 135.546 103.229 134.556 98.7625C134.328 97.735 131.814 96.74 130.879 96.3481L130.72 95.3281C131.849 93.865 133.719 91.86 133.803 90.1269C131.62 87.3694 128.414 88.7725 126.831 85.5206C124.317 80.3581 120.11 84.4437 117.43 80.7456C117.742 78.645 117.958 78.9475 119.461 77.0519L120.604 76.7987C121.476 77.3669 123.761 79.0488 124.817 78.8263C126.666 78.4369 127.764 76.3225 128.89 76.0531C130.133 75.7556 135.5 79.0156 137.463 79.3894C140.402 79.95 141.309 78.0087 143.868 78.0819C146.025 82.6881 138.583 97.1931 146.167 100.599C154.207 98.9412 150.559 103.242 154.249 106.512C156.761 108.739 162.078 109.214 161.159 115.181C159.923 116.473 160.427 116.134 158.406 116.301C156.804 115.454 156.485 115.106 155.236 113.82C150.141 113.509 147.232 113.296 142.279 112.107C140.553 115.092 138.636 117.425 138.16 120.67C139.944 122.503 139.382 120.194 140.39 122.296C138.614 127.391 121.415 129.754 116.114 129.926C109.286 123.627 106.664 126.927 98.9294 124.675C97.7025 124.317 98.4503 120.284 96.2546 119.351C95.6243 119.727 94.7679 120.171 94.3107 120.7L93.3918 121.312C91.8789 119.395 92.4023 119.526 90.3041 118.716C87.4844 119.296 83.1324 122.074 81.5895 124.442C81.3328 124.838 81.1092 125.254 80.9199 125.687C82.9369 128.051 84.2662 126.961 86.7136 128.207C87.8086 128.766 90.8526 133.097 92.4692 132.744C94.6499 132.267 94.5943 130.456 97.5152 131.292L98.9369 133.271L100.236 133.458C102.531 131.193 101.72 130.257 103.942 129.671C106.09 132.444 103.57 132.387 106.174 133.548C109.738 132.739 108.364 130.984 110.84 131.871C111.849 133.589 112.679 134.997 113.846 136.611C116.481 136.241 117.978 132.054 120.784 134.437C123.728 136.937 125.564 144.91 126.654 148.702C128.689 149.197 130.395 149.609 132.352 150.421C136.235 152.031 139.536 156.299 143.649 155.435C146.098 152.82 145.651 151.216 147.846 150.244C150.408 151.946 148.978 153.644 151.269 153.318C155.976 149.033 154.999 154.68 159.114 151.834C161.579 150.129 162.934 145.264 166.067 144.871C167.54 144.65 167.194 144.885 167.547 143.538L166.263 141.647C167.422 136.287 172.676 122.486 169.441 117.52C169.234 117.204 169.018 116.892 168.796 116.587C170.622 110.598 182.861 118.3 184.904 111.566C185.712 108.902 182.881 105.723 185.245 104.051C187.627 102.879 187.383 104.72 189.371 102.263L189.476 100.241L188.686 99.6131L185.436 100.192L184.962 99.46C185.392 97.5781 185.01 98.0212 186.293 96.9156C187.807 96.8944 188.766 96.8975 190.281 96.63C191.137 93.2975 187.178 88.5875 185.356 85.4175C196.242 76.4637 188.475 77.2269 187.203 73.7294C189.032 72.1088 193.875 69.7812 195.884 72.0087C196.075 73.7556 195.266 77.7894 195.367 78.1362C196.977 83.6937 199.471 80.9381 194.348 86.6844C195.059 89.3538 198.64 99.6119 198.536 100.981C197.363 102.064 196.974 102.254 195.592 102.957C196.411 107.189 197.425 109.943 197.903 114.347C196.367 116.24 196.801 116.254 194.784 117.041C193.241 116.106 192.54 115.692 190.855 115.048C188.528 116.261 185.331 119.277 187.054 122.204C188.495 124.65 191.629 124.506 191.521 127.021C188.772 131.214 184.032 129.712 187.469 137.549L188.373 137.851L191.833 135.846C195.973 137.317 193.832 143.286 196.796 145.688C197.249 145.498 200.956 143.873 201.165 143.832C203.721 143.337 208.651 148.144 208.662 150.634C205.819 153.526 201.048 151.727 199.611 153.96C199.853 156.281 203.512 159.006 205.796 158.634C210.474 157.872 212.281 152.522 215.737 150.061C217.833 148.64 219.978 150.423 222.044 148.17C222.859 145.3 222.429 140.343 221.77 137.446C218.464 135.682 219.025 139.583 216.268 138.917C216.416 136.712 221.308 132.63 221.492 131.471C222.197 127.042 218.171 120.25 217.414 115.739C216.784 111.984 217.614 102.664 216.465 99.7644L215.234 99.5037C212.286 101.599 211.376 102.804 207.553 102.481C205.575 102.314 202.844 102.752 201.24 101.222C201.767 98.6037 208.8 95.6881 211.451 93.9775C209.683 89.0862 204.512 71.7219 211.38 69.5356C211.998 69.3444 212.621 69.1687 213.248 69.0087C214.298 65.8006 213.952 62.2584 214.24 58.8948L209.638 52.2786C211.117 50.9778 212.976 49.6371 213.473 47.7654C212.558 47.2426 200.854 50.675 203.347 43.0822C207.881 38.8793 207.64 40.7961 211.943 35.3334C213.345 36.9249 218.223 41.8645 218.249 43.369C217.09 44.8354 215.474 46.5587 215.218 48.3606C215.858 50.2561 215.423 49.6536 217.196 50.7487C222.069 51.3017 225.784 41.1923 231.55 41.0517C233.441 41.6086 233.755 42.1371 234.959 43.7047C235.058 45.6315 233.519 48.2466 233.524 48.2539C238.786 56.3398 225.031 56.9874 222.783 63.6306C222.94 65.4812 222.619 65.345 223.787 66.4225C225.754 66.8087 226.47 66.5131 227.695 67.9587C231.024 71.8894 231.593 79.4369 237.849 79.6294C239.982 79.695 242.804 82.7619 242.755 84.7119C240.022 88.4331 235.344 84.1863 233.02 82.1825C224.369 81.9244 227.361 78.9112 220.558 74.3937C219.208 77.0712 217.577 80.1075 216.483 82.865C221.32 84.9031 223.746 85.7737 228.815 87.0912C226.903 92.485 223.128 94.8394 223.061 96.0081C224.159 96.7975 226.445 97.7369 226.442 98.4137C226.433 100.989 224.417 102.411 225.128 104.908C229.806 106.809 229.648 105.927 231.35 109.954L231.465 110.229C234.561 108.975 234.96 106.812 238.272 107.902C242.837 109.406 252.035 101.529 255.733 99.2387C254.456 96.5 253.045 93.2362 256.693 91.4456C258.775 91.7562 259.125 91.9756 260.787 93.2737C261.211 94.3956 261.617 95.5244 262.003 96.6594C265.916 96.275 267.999 89.5119 271.899 87.2219C274.83 87 277.11 88.8912 277.522 91.8356C276.629 97.3975 266.327 98.1087 263.883 103.661C263.818 105.939 263.656 105.14 264.773 107.142C266.462 107.837 267.027 107.637 268.786 107.252C272.677 104.895 270.882 101.859 273.378 99.66C277.449 101.042 276.567 110.061 283.175 107.025C284.875 106.244 286.557 104.552 287.204 102.774C286.746 99.1812 284.233 97.265 284.693 94.7344C285.935 93.455 288.129 92.1781 289.932 93.0169C290.968 94.7437 291.171 95.4575 291.767 97.385C295.216 96.76 291.172 88.6313 298.257 86.4688C299.989 87.3388 299.474 86.9437 300.365 88.9087C300.632 95.2575 294.335 95.9575 296.646 102.042C299.874 104.129 303.402 101.077 304.588 106.035C305.595 110.25 303.925 109.701 306.606 113.805C305.081 115.375 302.5 114.949 301.817 115.862C296.972 122.331 299.178 127.555 290.229 128.439C289.477 128.514 282.8 139.683 281.775 141.401C282.941 142.337 282.79 142.053 284.545 141.974C287.945 139.905 287.099 138.404 289.774 138.075C291.483 139.16 292.307 142.056 292.889 144.011C292.071 144.849 290.024 146.942 289.528 147.886C288.718 149.426 289.266 151.672 287.797 152.982L284.8 152.631C282.883 154.312 281.214 157.769 279.673 159.952C282.837 165.344 283.719 167.696 288.674 171.671C286.762 173.822 282.844 176.912 282.513 178.711C283.374 180.417 283.564 180.82 285.219 181.762C287.779 181.602 290.915 176.904 292.448 174.905C294.56 174.796 296.102 176.954 298.432 177.336C298.219 174.851 298.175 174.304 299.268 172.079C302.739 170.114 306.62 174.566 306.421 177.419C304.71 178.758 302.502 177.808 300.045 178.352C300.274 178.674 301.647 180.647 301.811 180.787C303.168 183.814 303.266 182.927 302.758 185.665L301.831 186.447C299.967 185.738 299.817 185.536 298.85 183.39C298.798 183.276 298.748 183.16 298.699 183.044L297.605 182.566C295.09 184.226 296.688 185.141 293.574 186.633C291.896 185.834 291.368 185.254 290.024 183.988C287.826 189.349 297.291 188.593 299.161 192.853C299.275 193.116 299.379 193.384 299.473 193.655C298.187 196.796 297.823 195.544 298.372 198.273C300.976 201.731 308.187 207.723 312.231 209.028C315.21 208.899 318.702 207.335 321.55 206.254C324.21 208.561 327.604 211.579 331.247 211.756C334.276 210.737 334.444 210.068 337.261 210.608C339.926 213.19 336.124 217.603 341.28 218.598C343.301 218.077 344.942 216.776 346.652 215.581L347.412 214.484C349.152 213.266 350.034 213.446 352.176 213.548C353.805 213.764 354.314 213.683 355.895 213.479C357.608 212.048 358.097 211.68 359.177 209.739C358.798 205.118 354.201 206.834 351.245 203.428L351.444 202.059C354.721 200.984 354.501 203.834 357.806 202.309C358.142 199.013 355.696 198.401 356.174 195.763C358.129 194.919 359.587 194.682 361.672 194.259C363.66 193.011 364.461 190.624 365.428 188.47C377.185 196.732 375.286 189.293 382.953 193.21C384.837 196.114 382.951 194.976 383.805 198.316C385.662 199.169 384.892 199.024 386.954 198.867C387.883 197.784 388.109 196.391 388.474 194.998C392.133 191.929 395.503 198.831 401.179 197.929C403.157 197.229 403.869 195.426 404.862 193.591C408.36 193.968 415.037 194.36 418.283 193.386C424.166 195.89 427.451 198.214 434.179 197.177C436.201 196.865 436.077 196.362 437.412 194.542L437.998 192.699L441.603 193.661C443.346 193.085 442.917 193.459 444.001 192.284C441.545 191.359 440.499 191.141 440.342 188.439C441.429 186.266 440.953 186.441 442.833 185.328L443.697 185.833C443.552 187.398 443.401 188.226 443.769 189.779C450.722 193.721 459.01 189.809 465.896 190.072C469.097 190.194 478.257 202.622 480.661 205.818C493.622 210.237 490.045 213.789 488.182 223.567C489.739 225.228 490.13 225.438 492.254 226.269C497.74 225.704 496.283 220.232 499.324 218.844L501.727 221.103C504.303 218.022 505.006 222.266 508.858 221.488C510.942 220.488 521.615 195.065 523.507 191.129C522.78 185.253 522.52 180.721 523.141 174.75C523.855 167.878 526.533 173.002 531.621 169.068C533.31 165.245 530.185 164.792 532.953 161.322C539.838 158.839 544.72 168.898 550.889 171.134C554.941 172.603 561.177 159.062 563.975 156.436C565.889 154.639 568.245 156.256 569.463 154.996C572.267 152.098 572.292 148.935 576.326 146.724C581.911 143.664 582.667 151.261 584.927 151.479C592.28 152.191 591.504 148.994 599.687 151.561C601.643 150.987 605.569 146.903 607.49 145.223C612.09 146.044 616.759 146.492 621.36 147.351C624.259 147.892 623.781 149.984 625.431 152.247L626.549 151.93C627.399 149.754 626.206 147.921 625.281 145.329C625.506 143.675 625.706 143.429 626.893 142.318C628.836 141.813 630.647 143.281 632.965 144.069C632.396 143.087 632.384 142.722 632.209 141.596C633.289 141.051 633.702 140.87 634.607 140.068C632.465 137.456 628.136 133.308 630.347 130.071C632.765 129.15 634.882 128.944 637.456 128.791C639.886 131.28 636.5 132.629 640.292 133.601L641.354 132.564C642.359 125.308 638.43 126.191 636.275 120.202C637.031 117.659 639.486 118.416 641.148 116.746C644.839 113.042 643.74 111.531 648.55 107.811L662.38 105.877L666.359 107.584C667.914 109.686 667.658 110.172 667.271 113.134L668.27 113.747C670.213 113.27 668.464 112.684 670.763 110.752C677.09 110.284 676.447 116.486 677.784 118.318C684.917 128.104 684.161 133.15 684.667 145.224C679.089 154.297 678.265 148.361 678.721 159.521C676.078 164.942 673.873 160.179 669.963 161.778C668.926 163.221 668.608 163.592 668.476 165.396C673.074 169.443 666.452 174.812 670.731 179.449C672.805 179.576 672.374 179.358 674.461 177.787L675.029 178.366C673.411 180.568 671.743 182.102 672.662 184.765L674.304 185.547C676.666 184.346 674.985 182.705 677.528 180.893C680.22 181.367 678.958 183.788 682.088 185.525C685.804 185.76 698.235 179.125 701.927 176.205C705.556 177.072 709.91 178.237 713.62 178.018C717.518 177.788 715.126 176.073 717.549 173.338C719.417 172.657 719.811 173.274 722.097 174.097C723.359 173.529 726.576 167.32 727.981 165.246C729.587 166.456 729.043 166.405 730.83 166.427C733.185 163.456 729.268 163.136 732.71 160.774C734.765 160.904 735.396 162.093 737.114 163.756L737.932 163.506C738.188 162.34 738.457 161.178 738.744 160.02C740.943 158.336 742.486 159.352 746.034 158.246C747.752 156.434 747.271 156.663 747.82 153.839L747.933 153.014C750.113 150.271 753.117 148.746 756.128 146.272L756.815 146.749L755.885 148.432C757.128 150.209 763.961 149.404 766.141 149.29C767.609 147.072 770.408 143.393 770.239 140.828C767.909 139.491 766.96 141.841 764.848 139.904C765.298 137.12 768.109 135.36 769.746 133.126C769.808 133.042 769.727 131.647 769.452 131.422C769.29 131.29 768.615 130.201 768.721 130.122L769.571 129.495L772.182 129.656C772.769 132.197 770.37 131.294 771.951 133.862C774.824 135.624 778.628 137.718 782.083 137.546C783.601 136.216 783.126 136.178 783.376 133.536C785.856 133.81 786.368 134.227 788.061 136.336C788.691 137.129 789.31 137.932 789.916 138.744L790.097 138.718C796.019 137.919 800.697 142.629 805.557 138.949L806.051 137.418C801.766 136.094 798.642 135.18 794.563 133.196L797.393 127.089C798.53 128.795 800.092 131.857 801.678 132.387L802.696 129.991C806.688 128.904 805.176 132.62 810.173 129.818C812.991 131.698 811.185 132.492 813.509 132.163C815.527 131.877 819.025 128.297 819.281 128.261C822.142 127.847 825.94 128.968 827.645 125.766C828.582 124.012 828.495 123.981 830.137 123.596C834.804 125.089 839.27 120.833 842.843 120.834C849.596 120.836 847.684 123.119 855.255 120.864C858.153 122.295 862.414 123.922 864.088 126.49C863.482 127.872 863.7 127.449 862.295 128.437C864.406 131.424 868.017 129.501 868.254 131.851C861.845 136.888 865.518 132.942 863.794 137.931C863.35 139.224 856.067 138.731 854.88 143.149C857.16 148.189 862.857 142.189 863.45 144.931C864.875 151.516 870.147 148.116 872.87 150.636C872.296 152.666 871.477 154.729 872.246 156.687C876.037 161.397 882.965 155.414 888.212 158.056C893.215 160.574 903.091 161.233 906.446 165.544C910.044 165.861 909.925 163.39 911.861 164.356L912.117 166.86C914.079 168.273 916.977 165.167 918.739 163.797C925.448 163.137 931.501 162.277 938.253 163.109C943.925 163.809 946.755 169.192 951.552 167.723C952.92 164.294 951.102 165.076 953.607 163.11C954.669 163.178 955.494 163.282 956.543 163.047C957.855 159.659 956.087 158.274 958.005 156.944C960.229 157.529 968.087 159.236 969.23 160.892C971.135 160.875 974.196 159.331 974.82 157.494C972.784 155.889 972.628 157.969 971.803 156.176L972.372 155.232C979.543 155.355 979.049 161.036 983.965 152.717L984.19 151.783L986.358 151.178C988.338 151.016 991.786 149.045 993.541 149.804C992.779 151.577 991.817 153.449 991.824 155.367L992.736 156.069C996.065 155.641 995.472 153.671 998.482 152.385C1000.13 151.68 1001.86 152.497 1003.5 150.974C1003.38 148.979 1004.19 148.217 1004.5 145.742C1003.8 142.859 1000.81 140.883 998.458 138.984C998.014 136.571 999.919 138.044 1000.31 135.821C998.482 135.269 997.027 135.922 995.203 136.492L994.422 136.049C995.753 133.969 995.091 134.531 997.283 133.432C1000.79 133.652 1004.98 136.991 1008.54 137.791C1014.28 139.081 1027.52 137.857 1029.38 145.324C1028.2 145.702 1027 145.678 1025.76 145.722L1025.24 146.718L1026.09 149.279L1028.08 150.223C1029.78 148.834 1030.81 148.037 1032.66 146.877L1032.51 145.132C1037.63 142.065 1049.9 153.06 1053.34 156.85C1059.8 156.884 1063.94 161.032 1068.33 165.422C1071.69 168.784 1070.43 172.564 1075.93 172.488C1077.9 172.461 1078.21 173.067 1080.39 172.285L1080.59 171.278C1078.16 168.889 1077.43 172.211 1075.22 169.202C1075.42 167.966 1076 165.814 1077.5 165.5C1088.99 163.084 1083.49 175.358 1083.8 178.371C1086.27 178.929 1089.69 180.012 1091.79 178.486C1092.01 176.613 1089.69 173.7 1088.56 171.625L1088.91 170.633C1094.45 169.646 1093.54 176.56 1098.51 178.778C1100.28 177.198 1096.25 175.203 1097.5 171.603C1099.42 170.599 1103.3 172.72 1104.39 171.364C1106.43 168.839 1111.37 162.169 1114.29 160.952C1115.15 162.926 1112.48 165.36 1115.51 167.263L1116.56 165.994C1118.37 159.589 1113.86 150.949 1111.64 145.18L1112.96 142.692C1114.23 142.403 1114.54 142.481 1115.84 142.676C1115.99 143.175 1116.22 143.819 1116.3 144.309C1117.65 153.78 1129.49 148.782 1135.79 150.047C1138.18 150.526 1141.02 152.901 1143.44 152.253C1142.6 149.486 1141.58 147.334 1140.4 144.715C1143.05 142.231 1144.24 141.082 1147.59 139.644L1148.04 139.656C1147.21 137.714 1146.31 135.913 1148.84 135.205C1151.32 135.169 1152.65 129.647 1153.87 129.527C1158.62 129.06 1157.13 130.582 1159.32 125.557C1160.84 125.216 1163.14 126.804 1164.85 127.662C1170.29 122.591 1171.01 122.729 1171.06 115.127C1171.06 114.04 1173.73 110.126 1174.77 109.356C1174.84 109.308 1178.67 109.07 1179 108.811C1185.81 103.934 1192.89 97.5406 1202.23 99.9925C1202.58 102.455 1200.31 102.294 1200.83 104.589C1201.53 104.562 1208.74 100.877 1209.24 100.324L1208.87 99.35C1207.56 99.235 1196.52 95.2881 1196 94.6512C1195.4 93.9275 1195.94 92.6544 1194.84 91.6375C1192.71 91.2356 1192.81 91.6781 1190.42 92.7969L1188.12 90.9344C1189.7 88.5762 1192.58 86.6394 1194.91 83.3012L1196.11 83.9031C1197.79 83.1356 1196.09 82.7944 1197.56 80.595C1199.62 81.3675 1197.66 82.9469 1199.27 85.1025C1201.9 82.8706 1199.27 82.1212 1201.91 79.3125L1202.4 79.6831C1202.08 81.2844 1202.08 81.6381 1202.16 83.2519C1203.44 83.9738 1202.9 83.8569 1204.51 83.4844L1205.26 81.4094C1207.31 82.7231 1208.25 83.3569 1210.53 83.0906C1212.6 79.88 1214.73 65.5313 1214.63 61.5612C1214.48 55.0969 1207.73 62.9969 1208 49.9802L1207.65 46.789C1207.81 45.3431 1207.89 45.0746 1208.6 43.8029C1208.79 43.794 1208.97 43.7813 1209.16 43.765C1212.46 43.4764 1211.25 41.5744 1211.51 39.0447C1213.21 38.6076 1216.04 35.3236 1216.68 34.3131C1221.95 26.0239 1238.26 38.4398 1244.3 31.2186C1243.49 26.3869 1232.72 26.6159 1233.98 21.5825C1238.03 21.0448 1236.81 22.6951 1239.55 22.4001L1241.49 19.6606C1244.54 20.054 1242.45 26.6994 1250.37 20.2742C1250.34 20.2955 1258.47 20.9081 1260.07 20.9472Z" fill="#379EA3"/>
<path d="M49.398 68.1717C53.8377 65.2023 65.1829 66.208 66.4978 73.1042L65.4478 75.9611C63.1266 75.4811 54.09 76.2148 52.0977 77.5842C51.905 77.7167 51.7604 77.8455 51.5923 78.0073C50.1691 79.6567 50.5845 79.638 48.704 80.2805C46.9852 79.6417 45.506 76.6186 44.458 74.9098L52.1593 75.3348C53.7262 72.108 48.8162 73.6361 47.8889 69.958L49.398 68.1717Z" fill="#379EA3"/>
<path d="M1148.04 139.656C1159.01 134.045 1155.73 136.533 1162.27 144.658C1161.16 145.96 1159.37 146.779 1157.84 147.596C1154.2 147.564 1152.88 145.058 1150.01 147.786C1149.31 150.211 1149.76 150.16 1148.09 151.286C1146 150.264 1146.08 148.112 1146.24 145.962C1147.38 144.476 1148.54 143.015 1149.74 141.579C1148.91 140.566 1148.72 140.275 1147.59 139.644L1148.04 139.656Z" fill="#EEEEEF"/>
<path d="M1260.07 20.9472C1262.15 20.0421 1261.91 15.7817 1265.61 13.0197C1267.05 10.8888 1272.49 12.0181 1273.64 11.3801C1277 9.52612 1274.69 9.68437 1279.3 9.92887V15.9746C1276.78 19.2947 1278.79 18.4763 1274.82 21.5435L1273.76 21.4439C1273.05 19.8228 1273.07 18.9384 1272.95 17.1932L1272.18 16.9885L1270.5 19.1159C1268.85 18.9529 1269.4 19.2145 1268.23 18.1116C1269.84 15.1555 1275.24 14.689 1275.29 13.3586C1271.57 12.8233 1264.59 12.6899 1263.92 17.9333C1263.74 19.2626 1264.65 20.7515 1264.5 22.1536C1262.75 22.2409 1261.66 21.6342 1260.07 20.9472Z" fill="#EEEEEF"/>
<path d="M8.11598 50.0609C18.2466 54.6545 16.5066 47.2716 24.3575 48.1148C26.1045 49.2536 25.6151 48.8876 26.5469 50.8984L27.6357 50.956C28.235 50.2276 28.5146 49.7076 28.9807 48.8906C30.9373 48.1052 32.9842 48.7943 34.9021 48.5924C35.6174 48.5171 35.5252 47.9085 37.8005 47.6396L36.6815 49.733C37.511 51.9273 38.1032 53.175 37.9876 55.5663C36.817 56.7835 37.1658 56.4466 35.1244 56.5287C33.3226 55.5385 33.7413 56.1001 33.0838 54.3317L33.5771 50.8788C32.5118 49.5013 32.932 49.6328 31.4312 49.1526C28.2624 50.4975 29.5579 52.5303 26.5191 53.0863C23.5205 50.7908 26.5279 49.7656 23.3938 49.1583C18.1385 50.279 12.8116 57.005 8.11598 50.0609Z" fill="#EEEEEF"/>
<path d="M1028.08 150.223C1024.88 152.366 1019 152.878 1016.99 149.291C1017.67 148.265 1018.32 147.224 1018.94 146.169L1017.87 145.528C1013.96 146.234 1014.44 149.616 1010.86 147.498C1009.63 140.864 1018.78 142.081 1021.74 145.345C1023.23 146.996 1023.99 148.335 1026.09 149.279L1028.08 150.223Z" fill="#EEEEEF"/>
<path d="M43.7763 69.5681L44.1751 68.6375C46.1789 68.7763 47.4216 68.5044 49.398 68.1719L47.8889 69.9581C48.8162 73.6363 53.7262 72.1081 52.1593 75.335L44.458 74.91C45.506 76.6188 46.9852 79.6419 48.704 80.2806C50.5845 79.6381 50.1691 79.6569 51.5923 78.0075L53.1114 79.7875C50.7876 81.3956 49.9564 82.3787 48.1031 84.4269C45.0114 80.3231 45.6255 79.7175 41.2857 78.3525C41.5091 75.515 45.1638 74.7163 45.8794 71.545C45.2111 69.9938 45.5269 70.4875 43.7763 69.5681Z" fill="#EEEEEF"/>
<path d="M51.5923 78.0074C51.7604 77.8455 51.905 77.7168 52.0977 77.5843C54.09 76.2149 63.1266 75.4812 65.4478 75.9612L67.501 76.1855C66.8526 77.6505 66.7314 78.7074 65.2966 79.043C59.9409 80.2968 58.2946 82.1387 53.2745 79.8618L53.1114 79.7874L51.5923 78.0074Z" fill="#EEEEEF"/>
<path d="M740.456 0L766.223 0C765.373 1.47086 764.748 2.32454 764.63 4.03225C767.766 5.58756 769.758 3.30406 772.276 4.89444C773.213 6.58762 772.475 8.20231 771.245 9.42269L767.378 9.01256L765.542 11.567C763.493 12.3463 764.43 11.9069 762.393 11.027C760.744 10.4056 761.169 15.3131 759.551 15.9977C754.042 18.3234 751.031 15.8677 749.694 22.4062C748.351 23.9081 745.934 23.8457 743.879 24.0402L741.636 31.1454C738.7 28.9662 730.03 23.6529 731.554 19.7732C733.228 18.8931 734.521 18.3686 736.283 17.6715C737.095 15.8707 736.233 11.8869 735.952 9.54881C739.993 5.96663 739.637 5.43336 740.456 0Z" fill="#379EA3"/>
<path d="M1111.64 145.18C1108.74 143.794 1096.02 142.574 1094.59 136.581C1094.32 135.432 1094.29 127.183 1096.43 126.448L1098.02 127.386C1099.26 129.288 1099.55 129.734 1100.05 131.943L1100.48 133.621L1100.58 133.643C1104.44 134.463 1105.63 135.209 1107.88 138.113C1109.47 136.86 1108.76 137.12 1110.9 137.248L1111.59 137.994C1110.91 139.694 1110.12 140.688 1109.07 142.174L1109.63 142.932C1110.86 142.968 1111.76 143.061 1112.96 142.693L1111.64 145.18Z" fill="#34A9B3"/>
<path d="M1100.05 131.942L1100.48 133.621L1100.58 133.642C1104.44 134.462 1105.63 135.209 1107.88 138.113C1104.09 143.307 1098.53 137.241 1098.26 132.777L1100.05 131.942Z" fill="#EEEEEF"/>
<path d="M1185.14 97.0994C1181.11 100.049 1179.29 106.279 1173.64 103.539C1172.52 102.029 1172.71 102.706 1172.88 100.821C1175.87 96.1187 1179.05 97.4112 1184.34 94.9587L1185.14 97.0994Z" fill="#379EA3"/>
<path d="M0 36.5688C2.37602 36.568 3.8054 36.1458 5.54009 37.3143C6.65028 39.6109 6.3259 40.035 8.11142 40.679C8.89973 38.3032 8.3977 38.5709 10.2103 37.5103L12.4197 38.0287C6.79289 40.065 7.07767 47.7508 0.280903 44.568C0.186922 44.5237 0.093285 44.4787 0 44.433L0 36.5688Z" fill="#EEEEEF"/>
<path d="M972.372 155.233C974.102 155.033 974.427 154.948 975.957 154.093L975.233 154.778L976.782 154.443C976.501 154.098 976.338 153.531 976.182 153.099L977.438 151.066L979.006 150.839L979.868 149.273C980.692 151.308 980.711 151.371 983.16 152.395C983.428 152.507 983.697 152.614 983.965 152.718C979.049 161.036 979.543 155.355 972.372 155.233Z" fill="#EEEEEF"/>
<path d="M37.7253 70.7576C39.2867 66.8057 42.3248 63.6182 46.1957 61.8701C47.4073 61.3303 48.1956 61.2182 49.5143 61.403C50.5376 62.0184 50.9146 62.0291 51.4512 62.9939C47.8766 67.3395 43.5747 63.9401 39.6041 69.8814L37.7253 70.7576Z" fill="#34A9B3"/>
<path d="M301.811 180.787C303.434 182.356 304.794 183.887 306.91 184.684C308.928 185.445 311.105 184.482 311.243 186.474C308.143 188.376 300.849 189.109 298.665 186.077L298.699 183.044C298.748 183.16 298.798 183.276 298.85 183.39C299.817 185.536 299.967 185.738 301.831 186.447L302.758 185.665C303.266 182.927 303.168 183.814 301.811 180.787Z" fill="#34A9B3"/>
<path d="M979.868 149.273C979.018 145.753 976.813 147.031 977.613 144.932L979.268 143.738C983.066 144.577 981.885 148.444 986.358 151.178L984.19 151.783L983.965 152.717C983.697 152.614 983.428 152.507 983.16 152.395C980.711 151.371 980.692 151.308 979.868 149.273Z" fill="#34A9B3"/>
<path d="M1208 49.98C1204.77 50.7141 1207.35 52.8972 1204.21 55.3361L1203.14 55.1701C1201.81 52.7488 1201.99 50.7443 1203.23 48.339C1205.49 46.6351 1204.6 47.0658 1207.65 46.7888L1208 49.98Z" fill="#34A9B3"/>
<path d="M747.82 153.839C746.402 153.855 745.871 155.624 744.178 156.178C743.904 153.541 743.16 147.071 746.09 146.071L747.408 147.09C747.658 149.125 747.801 150.968 747.933 153.014L747.82 153.839Z" fill="#34A9B3"/>
<path d="M93.3918 121.312L94.3107 120.7C93.7047 123.454 93.3237 128.388 89.8837 128.188L89.2053 126.704C89.2541 122.529 89.7782 122.769 93.3918 121.312Z" fill="#34A9B3"/>
<path d="M346.652 215.581C343.39 213.789 343.905 215.849 341.048 214.655L341.179 213.719C344.926 210.026 347.903 211.697 352.176 213.548C350.034 213.446 349.152 213.266 347.412 214.484L346.652 215.581Z" fill="#34A9B3"/>
<path d="M437.412 194.542C435.02 193.144 433.002 192.393 432.25 189.91C434.737 189.684 435.961 191.049 437.998 192.699L437.412 194.542Z" fill="#34A9B3"/>
<path d="M1184.34 94.9587C1185.82 94.0687 1187.04 92.3175 1188.12 90.9343L1190.42 92.7968C1188.84 94.0756 1186.59 95.775 1185.14 97.0993L1184.34 94.9587Z" fill="#34A9B3"/>
<path d="M758.958 85.7988C767.228 89.0913 764.611 95.3595 764.33 101.944C764.13 106.585 766.454 103.63 769.271 106.208C770.327 108.641 769.327 112.396 768.865 115.139C770.145 116.926 771.963 119.377 771.832 121.416C770.427 123.514 767.728 123.095 766.685 123.921C761.269 128.214 764.574 130.048 764.898 134.858C764.967 135.861 761.969 138.346 761.588 139.466C761.194 140.626 762.225 140.502 763.231 142.438C761.994 144.47 761.244 145.173 758.858 144.811C757.128 143.551 756.984 143.023 756.272 140.985C756.572 138.767 756.684 139.265 758.596 137.345C758.833 137.03 759.052 136.703 759.258 136.366C760.113 134.931 760.164 133.83 759.776 132.363C758.027 132.583 755.678 135.006 753.099 136.228C751.693 135.394 752.049 135.504 751.287 133.811C751.93 127.994 760.438 127.083 760.844 121.381C759.72 119.864 757.34 120.058 754.548 119.188C752.774 117.162 753.717 112.333 752.43 111.905C744.747 109.343 749.838 100.119 753.555 96.2144C755.11 94.5832 753.979 93.587 752.917 91.5388L753.342 90.3901C755.279 89.1807 754.573 89.452 757.053 89.6688C758.714 88.4488 758.29 88.2988 758.958 85.7988Z" fill="#379EA3"/>
<path d="M180.701 66.6249L178.384 63.8655C179.052 58.9673 192.286 60.2715 195.681 62.0877L194.898 63.1768C192.958 63.3487 190.796 63.3468 189.253 64.5024C187.596 67.4087 188.434 68.448 186.366 69.3824C179.797 70.4512 181.96 69.7093 180.521 76.1543C179.446 77.3024 178.544 78.2662 177.815 79.0455C175.302 74.3055 174.728 75.0324 170.896 71.6649C169.825 70.7237 167.665 66.8355 166.584 65.4593C165.723 64.3618 164.477 63.8149 163.674 62.9562C163.535 62.808 163.398 62.6574 163.264 62.5043L163.814 60.9896C168.469 59.169 173.009 67.4343 177.34 69.1712C179.025 68.8862 179.614 67.9212 180.701 66.6249Z" fill="#379EA3"/>
<path d="M332.625 78.2095C334.279 78.3126 334.621 78.3495 336.161 79.0626C337.563 81.4176 338.805 83.117 338.541 85.6351C335.892 87.2457 336.506 83.6651 332.56 86.6051C331.983 88.8163 332.947 90.1063 333.575 92.7682L332.833 93.6032C327.361 93.9295 327.918 90.7745 323.287 94.2095C323.103 94.5607 322.414 94.9951 322.051 95.2663C318.717 94.8357 320.661 93.172 314.84 91.9351L314.211 90.937C315.803 88.8651 317.503 91.0026 320.654 89.3995C324.6 87.392 330.19 79.5226 332.625 78.2095Z" fill="#379EA3"/>
<path d="M59.0325 50.1863C60.3911 50.5235 63.9542 52.8993 65.4353 53.534C72.0042 56.349 70.1746 51.9925 73.5396 50.8803C71.2115 54.1665 72.2428 59.0559 68.7322 62.8531C67.9046 64.855 68.3162 64.6218 66.7252 65.8318C63.7418 63.7762 63.2702 63.1662 60.4688 65.3243C58.6335 65.3418 59.0858 65.2975 57.3673 64.3262C54.9657 60.772 56.6549 53.4993 59.0325 50.1863Z" fill="#379EA3"/>
<path d="M238.145 27.7677L247.929 27.4846C249.635 29.031 251.084 30.1621 252.092 32.2676C251.967 34.9556 252.074 34.1101 250.324 36.6101C243.823 41.8409 239.751 32.5862 238.145 27.7677Z" fill="#379EA3"/>
<path d="M109.492 79.3381C110.06 79.4075 110.626 79.49 111.19 79.5869C115.603 80.3506 118.036 82.665 117.164 87.1606C115.897 89.1256 114.871 89.4525 112.733 90.45C112.29 91.01 112.049 90.9088 111.217 91.1206C105.375 88.3044 103.429 83.3525 109.492 79.3381Z" fill="#379EA3"/>
<path d="M1206.47 58.8169C1208.34 59.4206 1208.78 59.7571 1210.37 60.9009C1210.6 63.4186 1208.17 64.4924 1207.9 66.5249C1207.74 67.673 1208.85 72.1574 1209.15 73.4793C1208.52 75.3686 1206.31 77.1149 1204.79 78.5224L1203.11 78.4155C1202.88 72.0861 1198.31 71.4111 1203.15 68.6705C1204.26 68.0411 1205.11 61.5933 1206.47 58.8169Z" fill="#379EA3"/>
<path d="M85.3924 59.0029C88.6163 60.1576 89.8481 58.3544 92.263 59.9666C91.4803 61.6592 88.2615 63.4731 86.573 64.5969L92.2437 67.4187C91.8526 68.7169 92.1225 68.2831 91.1205 69.2037C88.492 69.5887 83.3779 70.3025 81.0061 69.1819C79.8836 66.8381 81.5552 65.8594 81.3047 64.9887C79.6444 59.2276 80.9705 62.3551 85.3924 59.0029Z" fill="#379EA3"/>
<path d="M151.796 67.6174C153.465 68.0174 154.684 69.5249 155.924 70.7781C158.111 71.2131 158.774 69.2649 162.067 68.1393L162.855 68.6999C163.355 73.1612 160.395 71.6999 158.835 74.6187L159.83 75.0824C161.528 76.2762 162.38 76.6618 162.015 78.7824L160.947 79.0862C155.654 77.0543 154.889 76.1268 151.134 72.1006C150.561 69.6756 150.759 70.3274 151.796 67.6174Z" fill="#34A9B3"/>
<path d="M107.039 66.0752C116.242 66.7621 113.965 77.9758 106.967 78.8546C103.481 72.3152 107.881 74.0002 109.485 70.8496C108.041 68.7189 107.613 70.6814 104.831 69.2908C104.984 67.9777 106.01 67.2514 107.039 66.0752Z" fill="#34A9B3"/>
<path d="M269.575 27.155C272.423 27.9267 274.485 28.624 275.681 31.4915C275.918 33.7457 275.566 34.2436 274.407 36.2148C271.356 35.588 268.842 34.8983 267.814 31.6718C267.998 28.9374 267.935 29.7392 269.575 27.155Z" fill="#34A9B3"/>
<path d="M311.642 94.2063C313.796 94.3794 314.781 94.3432 316.571 95.5282L316.788 96.7163C315.777 98.7144 313.347 99.7469 311.348 100.847C309.911 101.671 308.534 102.151 307.159 101.22C306.908 98.3657 309.692 95.9194 311.642 94.2063Z" fill="#379EA3"/>
<path d="M708.754 119.12C711.19 119.305 711.984 119.696 713.52 121.227C713.983 123.478 712.471 126.351 711.615 128.779L710.222 129.282C707.274 127.644 707.355 121.885 708.754 119.12Z" fill="#379EA3"/>
<path d="M339.092 188.111C341.946 187.724 343.532 187.554 345.366 189.864C345.514 193.439 343.514 194.316 340.866 196.167L338.767 195.264L338.581 194.352C343.987 190.904 339.932 192.542 339.092 188.111Z" fill="#379EA3"/>
<path d="M323.3 124.808C326.772 124.605 331.19 124.473 331.834 128.769L330.838 129.206L329.571 128.535C328.803 128.064 328.249 128 327.374 127.815C325.899 129.073 325.349 129.235 323.522 129.895L322.596 129.395C322.168 127.57 322.678 126.575 323.3 124.808Z" fill="#379EA3"/>
<path d="M709.454 132.227C711.334 133.208 710.916 132.699 712.015 134.427C712.527 137.27 711.034 140.647 710.079 143.461C705.925 140.745 707.817 135.755 709.454 132.227Z" fill="#34A9B3"/>
<path d="M773.706 124.327C776.255 124.371 780.608 124.48 782.145 126.789L781.87 127.674L780.334 128.032L779.603 128.057C777.317 128.129 772.7 128.511 771.107 127.019C771.657 125.236 771.826 125.583 773.706 124.327Z" fill="#34A9B3"/>
<path d="M149.225 42.3727C150.224 41.6899 151.517 41.6108 152.591 42.1669C153.666 42.7231 154.348 43.8246 154.368 45.0349C154.389 46.2451 153.743 47.3688 152.688 47.9605C151.153 48.8212 149.212 48.3204 148.285 46.8241C147.358 45.3277 147.772 43.3661 149.225 42.3727Z" fill="#379EA3"/>
<path d="M1136.89 122.586C1138.94 122.444 1141.96 121.95 1143.63 122.941C1144.6 124.883 1144.28 124.493 1143.88 126.956C1142.14 127.379 1139.54 128.004 1138 127.106C1136.64 125.023 1137.06 125.367 1136.89 122.586Z" fill="#379EA3"/>
<path d="M161.358 97.8706C163.645 98.1 166.744 100.598 167.304 102.957C167.732 104.761 167.051 105.094 166.096 106.649C164.912 106.809 164.773 106.774 163.709 106.228C162.9 103.247 161.21 100.066 161.358 97.8706Z" fill="#34A9B3"/>
<path d="M230.585 59.6851C233.104 59.9052 233.608 60.0779 235.213 61.6111C235.821 63.7376 235.375 64.6888 234.705 66.8157C232.301 66.7826 233.101 67.0932 231.304 65.4863C230.343 63.1519 230.47 62.2289 230.585 59.6851Z" fill="#34A9B3"/>
<path d="M203.644 105.493C205.771 105.755 207.817 106.366 209.502 107.701C210.672 109.95 210.382 109.171 209.921 112.088C206.905 110.34 202.749 109.066 203.644 105.493Z" fill="#34A9B3"/>
</g>
<defs>
<clipPath id="clip0_180_3499">
<rect width="1279.3" height="250" fill="white"/>
</clipPath>
</defs>
</svg>
