<svg width="1280" height="250" viewBox="0 0 1280 250" fill="none" xmlns="http://www.w3.org/2000/svg">
<g clip-path="url(#clip0_180_3546)">
<path d="M1279.3 250L538.604 250H513.237L0 250V233.438V0L1279.3 0V204.896V250Z" fill="#FFFFFE"/>
<path d="M44.8816 215.58C41.1086 217.142 36.9547 217.016 34.7747 218.288L34.6747 219.135C35.3618 221.188 42.9139 225.456 45.0939 226.8L45.2501 227.702C42.6078 228.898 42.8015 226.924 39.5471 227.232L38.1228 229.696L37.0546 229.85C36.2988 228.515 35.7803 227.649 34.8683 226.396C31.0579 226.431 31.2703 229.337 27.741 229.509C25.2112 229.632 15.96 226.899 14.0423 227.362C13.7612 227.432 13.4864 227.525 13.2178 227.641C13.3364 229.035 15.0168 230.14 16.2536 231.296C15.1292 234.274 8.09552 237.734 4.88478 236.571C6.9524 233.867 9.95699 235.69 11.9122 231.714C10.6066 230.942 8.32668 231.583 6.6401 231.891C6.65884 230.933 6.64011 230.257 6.5714 229.302C4.5725 228.209 5.30333 228.269 3.11703 228.533C0.587171 230.543 1.89896 230.587 0 233.438V-1.90735e-05L1279.3 -1.90735e-05V204.896C1270.45 203.452 1271.81 210.004 1267.39 210.971C1266.17 209.821 1265 207.704 1264.78 206.051C1266.23 202.983 1270.74 202.344 1271.88 199.688C1267.28 191.787 1258.08 202.447 1254.56 199.607L1253.83 197.286C1252.31 196.573 1252.89 196.708 1250.99 197.278C1249.61 199.276 1249.73 200.043 1247.93 200.938C1246.05 198.925 1246.48 194.39 1245.5 193.834C1242.65 192.218 1240.82 194.866 1240.78 190.706C1243.07 188.774 1243.67 191.116 1244.2 188.735C1240.12 183.494 1244.64 185.474 1244.08 180.669L1243.08 179.806C1238.54 180.702 1235.92 189.948 1228.67 187.612L1228.29 186.892C1232.33 183.127 1240.09 185.733 1239.24 178.413C1237.48 177.838 1235.8 178.644 1233.75 179.162C1233.41 175.422 1244.14 171.014 1239.99 164.278L1238.93 163.911C1237.22 165.086 1236.83 165.347 1236.11 167.277C1236.13 168.632 1236.09 169.38 1236.52 170.698C1234.44 170.072 1232.59 167.372 1231.16 165.621C1224.66 171.682 1221.4 167.63 1213.81 170.702C1212.2 171.353 1207.19 179.214 1202.85 180.196L1202.24 179.387L1202.75 180.2C1200.98 176.435 1203.49 173.479 1199.89 170.579C1193.11 170.639 1193.72 179.156 1188.19 177.653L1186.46 175.986C1186.73 173.111 1194.56 168.762 1193.73 160.708C1191.37 158.962 1190.62 160.678 1190.21 158.101C1189.85 155.861 1190.5 153.757 1189.13 151.879C1185.97 150.707 1184.51 152.853 1182.27 154.871C1177.19 147.581 1178.83 145.217 1175.25 137.783C1174.91 137.084 1172.6 136.839 1171.16 133.784C1172.51 131.793 1173.25 131.621 1172.98 129.792C1170.89 129.738 1169.56 129.882 1167.48 130.116L1167.04 129.546L1169.08 127.107L1168.43 126.108C1166.57 125.852 1166.22 125.856 1164.61 126.82C1163.07 128.904 1163.4 130.004 1163.11 132.891C1162.05 143.622 1153.73 134.924 1148.28 135.737C1144.99 136.227 1142.26 141.597 1142.43 144.669C1142.56 148.496 1145.73 151.574 1147.86 154.686C1147.18 156.768 1143.81 156.727 1146.53 161.779C1148.27 162.439 1150.53 162.286 1151.22 163.585C1154.45 169.706 1158.21 167.002 1160.99 168.892C1161.27 170.594 1160.6 171.398 1159.73 172.86C1155.19 172.973 1157.49 168.366 1151.69 172.506C1147.52 175.475 1144.75 166.908 1136.33 171.493C1133.43 168.506 1140.33 155.447 1135.39 150.049C1133.9 149.288 1130.93 149.332 1131.15 149.484C1128 147.299 1118.77 139.111 1118.03 135.672C1119.34 134.047 1118.71 134.426 1120.61 133.739C1120.98 133.961 1124.89 136.629 1124.59 136.578C1128.82 137.306 1133.03 137.494 1137.26 138.247C1138.85 135.559 1140.52 132.919 1142.26 130.331C1141.4 127.397 1139.24 129.231 1139.57 126.566C1143.88 123.2 1156.94 120.464 1162.88 120.166C1170.53 127.051 1177.8 123.686 1179.87 125.737C1181.42 127.272 1180.95 129.868 1183.05 131.215C1184.12 130.551 1184.63 130.186 1185.59 129.37C1187.46 130.824 1187.96 131.715 1190.05 131.734C1193.45 129.476 1195.39 128.052 1198.48 125.404L1198.7 124.322C1195.74 120.471 1193.89 124.309 1191.03 120.184C1189.99 118.676 1188.86 117.192 1187.09 116.539C1182.67 116.6 1184.33 119.3 1181.73 118.273L1180.2 116.311L1179.02 116.396C1178.03 117.601 1177.14 118.707 1176.06 119.836L1175.17 119.337L1174.66 116.846C1171.38 115.076 1171.24 118.638 1168.05 117.026C1166.81 114.891 1166.59 113.631 1164.63 112.725C1162.31 114.439 1163.14 115.459 1161.05 116.346C1156.79 115.424 1154.3 104.881 1152.76 101.304C1147.08 99.3925 1138.43 93.3637 1135.74 94.165C1132.76 96.3856 1134.11 98.1443 1131.38 99.0862C1130.52 98.0668 1130.01 97.4131 1129.25 96.3106C1125.86 96.8193 1127.22 99.7256 1122.68 97.0106C1120.72 95.8393 1115.87 102.969 1114.8 104.174C1115.03 103.935 1111.42 105.634 1111.46 105.611C1111.23 107.452 1112.81 108.062 1112.71 108.391C1110.56 115.467 1108.64 122.34 1108.32 129.8C1108.23 131.649 1111.07 132.817 1108.86 134.877C1102.89 136.384 1098.97 133.912 1095.09 136.164C1092.85 140.326 1095.14 141.941 1094.62 144.762C1094.2 147.035 1088.25 144.659 1089.81 150.252C1092.2 151.782 1093.33 149.421 1094 151.585L1093.41 152.46C1090.71 152.61 1089.45 152.072 1087.87 153.564C1087.85 157.779 1091.25 160.266 1093.43 164.305C1088.79 168.806 1086.62 170.674 1091.18 176.351C1088 177.446 1086.4 178.624 1083.59 177.653L1082.97 176.603C1086.41 167.792 1082.81 173.03 1082.5 166.978C1089.21 158.867 1079.54 153.773 1081.48 148.851C1081.97 148.585 1084.14 147.522 1084.16 147.235C1084.45 142.356 1078.68 137.477 1084.11 133.547C1086.76 133.854 1089.25 134.986 1091.26 134.211C1093.25 131.917 1093.24 127.871 1091.2 125.638C1089.68 124.868 1088.14 124.147 1086.57 123.475C1088.52 122.409 1091.1 120.89 1093.05 119.974C1092.85 116.904 1093.22 115.384 1091.74 112.617C1088.55 112.057 1088.64 115.843 1085.61 111.491C1083.58 108.577 1085 106.114 1082.62 104.381C1080.71 104.243 1078.78 105.539 1077.06 106.478C1074.95 104.625 1072.39 102.659 1071.04 100.232L1071.18 98.6743C1074.02 97.02 1080.6 100.499 1079.28 93.8068C1077.38 91.7856 1072.24 90.8837 1070.33 92.1387C1064.97 95.6593 1065.7 100.647 1057.23 101.671C1054.44 101.999 1056.76 110.762 1057.49 112.984L1058.45 113.426C1059.83 112.854 1061.2 112.235 1062.54 111.569L1062.76 112.504C1060.87 114.215 1057.02 117.214 1057.26 119.729C1057.73 124.641 1060.6 129.757 1061.58 134.846C1062.19 138.086 1061.48 148.489 1062.28 150.333C1065.53 151.139 1073.19 145.899 1076.83 147.847L1077.55 149.145C1076.55 151.902 1069.07 153.516 1068.06 156.351C1067.05 159.214 1071.55 163.951 1071.13 166.873C1070.89 167.221 1069.42 169.307 1069.42 169.476C1069.29 172.908 1073.82 177.698 1068.34 179.587C1064.17 181.022 1064.75 187.764 1064.7 191.278C1066.1 193.224 1067.81 195.74 1069.32 197.535C1067.91 198.842 1066.16 200.184 1065.71 202.021L1066.45 202.608C1068.88 202.283 1071.8 201.635 1074.03 202.51C1075.73 204.224 1075.31 203.492 1075.65 206.046C1075.27 207.522 1069.69 211.303 1067.32 214.037C1065.95 212.451 1061.76 208.167 1061.64 206.593C1062.72 205.021 1064.28 203.137 1064.36 201.287C1063.61 199.451 1064.03 200.046 1062.31 198.897C1055.9 198.449 1052.47 211.456 1045.55 207.856C1043.44 203.852 1047.79 203.664 1045.17 198.432C1044.92 197.945 1044.67 197.463 1044.4 196.986C1045.71 195.279 1048.11 194.831 1050.33 194.143C1052.07 191.969 1056.62 186.761 1056.8 184.091C1055.44 182.549 1052.87 182.407 1052.61 182.144C1050.29 179.727 1047.24 172.847 1044.85 170.909C1042.25 168.796 1039.16 171.515 1037.59 166.259C1038.04 164.497 1037.69 165.076 1039.43 163.967C1042.07 164.269 1043.49 166.095 1045.76 168.046C1056.64 167.978 1052.91 174.067 1058.43 175.362C1060.84 173.95 1062.12 169.699 1063.02 167.04C1061.42 166.296 1052.27 162.556 1051.8 161.883C1051.74 157.974 1054.93 157.159 1056.85 154.624L1056.77 154.397L1056.72 154.255C1056.18 152.71 1052.73 152.446 1053.4 150.903C1054.05 149.376 1056.49 144.502 1053.84 143.543C1050.09 142.191 1049.8 145.293 1048.24 139.671L1047.29 139.443C1046.25 140.161 1043.19 142.777 1041.91 142.188C1036.75 139.809 1027.16 147.967 1023.41 150.681C1024.35 153.073 1025.16 153.909 1024.7 156.169C1022.97 157.774 1021.44 158.092 1019.28 157.052C1018.28 155.58 1018.1 155.011 1017.52 153.346C1014.04 152.993 1008.9 161.294 1005.65 164.043C1004.62 161.781 1002.69 158.228 1002.77 155.891C1006.8 152.322 1015.83 150.226 1016.97 144.763C1014.94 141.899 1012.59 141.314 1009.52 142.816C1006.97 145.811 1007.38 148.824 1005.51 149.827C1002.61 146.38 1002.42 142.519 998.011 141.803C994.878 142.106 992.179 144.85 991.79 147.941C992.811 150.597 994.437 153.078 994.17 155.365C992.824 156.673 991.86 156.631 990.008 156.839L988.976 156.431C988.658 154.884 988.557 153.955 987.707 152.601C985.098 154.394 985.022 161.884 981.13 163.195C975.564 159.377 986.351 153.739 982.433 147.219C977.484 144.015 974.912 150.641 973.656 136.172C974.777 135.362 977.681 134.684 977.692 134.674C980.624 132.121 980.705 127.362 983.077 124.39C984.681 122.409 989.477 122.047 990.754 120.632C993.534 117.546 995.49 111.599 997.91 108.424L997.126 107.124C993.598 107.288 992.956 112.566 988.653 110.329C987.93 108.9 987.366 107.811 986.811 106.296C990.041 102.581 990.516 102.488 991.602 97.8268C992.901 97.9506 993.628 98.0818 994.923 97.7668C996.974 95.0362 998.359 92.7756 1000.13 89.8525C996.778 84.3187 995.937 82.2537 991.003 77.9843C993.074 76.1493 997.156 73.2994 997.366 71.11C996.367 69.4319 996.143 69.0118 994.404 68.14C989.94 68.6268 989.78 71.6156 986.936 74.3737C982.99 74.3812 983.254 71.8237 981.001 72.9662L980.574 74.4769L979.053 72.3862C978.316 67.3519 973.139 65.355 968.984 63.2312C972.123 60.7569 973.341 64.6544 976.507 63.1744C978.104 62.4281 978.211 62.2656 979.808 62.8694C980.95 66.155 979.095 65.5631 981.105 68.0025L982.06 67.9806C982.987 66.3931 983.415 65.6831 984.606 64.2844C986.717 64.1319 987.348 65.1262 989.433 66.5106C990.302 65.2256 990.065 65.6244 989.868 63.8369C987.926 60.5387 981.963 59.5219 980.133 56.5687C980.728 54.7969 981.889 52.5737 980.931 51.2006C978.032 47.0468 971.112 41.9975 966.57 40.2294L957.978 43.2037C955.492 41.3306 950.103 37.3531 947.037 37.1875C945.928 38.4069 945.316 39.1393 943.957 40.1037C939.425 39.3168 943.373 32.5431 938.837 30.6475C937.031 30.7562 933.48 33.0381 933.068 34.8194C934.445 35.6644 936.176 35.6231 937.816 35.7431C937.132 36.9669 936.145 37.1712 934.723 37.9375C929.324 38.6687 921.719 31.4187 920.127 41.3769C921.957 45.9 925.615 43.9325 927.586 46.9487L926.986 47.9169C924.188 47.4244 923.425 46.6018 921.279 47.4856C920.843 51.8437 926.28 53.7081 917.205 55.3119C915.899 57.1437 914.542 59.0025 913.303 60.8756C902.987 53.1481 906.05 60.0875 896.387 56.5087L895.668 55.5406C895.935 54.0231 896.314 52.7725 895.736 51.3487C894.238 50.5675 893.859 50.6162 892.228 50.7975C890.289 53.0144 891.92 55.4625 889.368 55.5869C882.043 55.9444 880.55 45.1269 874.028 56.0644C872.69 55.9144 867.987 55.4256 866.992 55.6962C858.106 58.11 851.882 49.2325 843.282 52.7694C842.018 54.37 842.239 53.6937 841.997 55.6394L842.939 56.7356L842.604 57.8081C837.958 55.7081 838.184 55.2819 834.639 58.715C832.269 59.685 828.831 57.6644 826.293 57.91C822.727 58.255 817.954 59.4425 814.5 59.56C809.251 59.7375 803.618 48.0987 799.511 44.8019C796.82 42.7819 793.713 42.4725 791.396 39.8587C787.485 35.4456 792.962 28.2112 789.304 24.0775C787.347 23.0543 786.729 23.1731 784.513 23.3881C782.433 25.0581 782.271 27.0206 781.487 29.7993C780.034 30.7056 775.98 28.9493 773.641 28.2287C766.696 26.0887 764.953 40.1568 761.778 45.0931C760.424 47.1987 756.608 55.7981 755.851 58.22C754.763 61.705 758.068 76.3662 754.149 78.8375L752.013 77.695C750.037 78.8675 751.121 80.0837 748.472 80.2643C748.045 80.2931 747.359 81.165 746.998 81.54C746.617 83.5468 746.848 84.4787 747.165 86.5019C746.199 88.4456 746.738 87.8425 744.895 89.0094C739.612 89.3794 733.188 79.9468 727.679 78.41C723.271 78.6981 717.809 91.2725 715.269 92.5987C709.493 95.6156 708.189 97.3331 703.798 102.146C700.475 105.791 696.692 100.586 694.554 97.7143C687.745 98.9512 685.601 99.475 678.906 97.9131C676.614 100 674.354 102.124 672.129 104.282C668.566 103.827 658.378 102.855 655.791 101.457C655.295 100.084 655.13 99.3593 654.837 97.9575C653.422 97.3731 654.009 97.4112 652.416 97.965C651.098 101.192 655.129 103.688 652.529 106.984C650.692 107.43 648.175 106.321 646.301 105.69C646.207 107.463 645.564 108.238 644.608 109.721C645.27 113.782 650.636 115.104 648.925 118.912C647.069 120.179 643.346 121.558 641.279 120.507C640.829 119.139 640.804 118.299 640.679 116.897L639.605 116.23C637.818 116.84 638.399 116.393 637.381 118.205C636.756 125.092 644.433 126.632 642.459 131.629C640.56 132.897 641.135 132.536 638.393 132.178C637.156 132.956 633.302 139.458 631.134 141.992C626.237 142.644 618.36 144.231 613.95 142.539C611.208 139.479 614.412 138.484 611.077 135.66C609.615 136.066 609.509 137.013 608.503 138.691L607.422 138.842C602.619 136.608 603.512 135.887 601.526 131.418C599.752 127.426 595.866 122.002 595.76 117.497C595.654 113.195 595.46 109.106 595.21 104.832C596.585 102.679 600.383 98.2856 601.257 96.4343C602.556 93.6743 599.521 92.6337 602.425 88.5262C605.155 87.4343 605.024 89.2512 608.597 88.8062C610.833 87.4456 611.327 85.4212 610.914 82.9531C610.196 78.6987 608.815 65.8325 604.855 64.1175C603.119 65.1912 603.318 66.525 601.782 68.7594C599.639 68.2006 600.276 65.7587 597.54 64.25C592.868 64.1193 581.343 70.2144 577.239 73.4694C571.342 72.1994 562.822 68.1669 561.441 76.5494C559.761 77.2462 558.949 76.32 556.588 75.6069C554.389 76.7262 554.064 81.1712 552.328 83.175C550.56 85.215 551.272 83.0675 548.068 83.4331C546.537 85.4925 547.443 84.5125 547.649 87.99L546.656 88.9793C543.626 88.665 544.638 86.6043 541.702 85.9587C540.084 87.4381 539.984 88.0043 539.447 90.145C538.154 91.2887 534.45 91.2069 532.52 91.33C528.666 104.942 524.599 98.8231 512.693 100.768C511.288 102.854 508.327 107.002 508.595 109.422C511.013 111.346 511.075 109.127 513.668 110.569C513.049 112.867 510.694 115.094 509.051 116.917C504.41 113.963 499.338 109.789 494.916 115.156C490.231 115.117 491.361 109.664 488.3 111.075C482.041 113.959 479.474 104.467 473.29 111.222L473.346 112.371C474.427 113.501 482.104 115.971 484.428 116.947C483.547 118.799 482.972 119.867 481.866 121.594C480.523 120.167 479.655 118.772 478.574 117.141C476.157 116.931 478.25 118.295 475.945 119.724C475.076 119.682 471.004 119.271 470.579 119.35C466.875 120.05 469.411 119.073 466.675 117.469C460.428 119.104 454.806 122.715 449.353 125.954C449.347 125.957 446.961 125.21 446.948 125.214C443.531 126.644 440.021 128.329 436.335 128.936C429.008 128.931 431.881 126.632 424.323 128.807C421.824 127.649 417.121 125.927 416.059 123.564L416.99 121.481C415.772 119.467 414.553 119.589 411.917 118.719C411.917 116.109 415.266 119.2 415.178 113.024C418.314 109.876 423.486 111.83 424.635 106.929C424.017 104.919 424.404 105.049 422.936 104.057C421.262 104.521 419.588 104.954 417.895 105.356C417.202 105.07 416.365 104.926 416.252 104.211C415.459 98.9625 408.182 101.576 406.858 98.665C409.725 98.5412 411.124 98.9593 412.823 97.1781L412.711 95.645C410.624 94.4181 411.655 95.4606 408.557 95.6343C407.332 93.9443 406.364 92.6687 404.99 91.0993C403.528 91.1681 393.084 92.1581 392.428 91.995C386.581 90.5468 377.755 86.505 371.858 84.53C371.977 84.5712 369.291 85.4156 367.985 85.415L367.642 82.9118L366.686 82.3243C364.575 82.5575 361.676 84.8012 359.796 86.0562C353.15 86.5175 344.917 87.775 338.427 85.8043C335.353 84.8718 331.124 80.2875 327.476 82.1537L326.602 85.6893C324.984 86.0387 324.228 86.3612 322.723 86.98C321.099 89.2687 322.273 88.8275 321.842 92.0612C319.793 92.8756 315.214 89.9156 311.448 89.635C304.626 89.1262 305.37 93.0175 302.84 93.7012L300.46 91.5825L299.217 91.8062C292.421 97.445 301.522 100.932 300.622 105.304L299.267 105.6C296.325 103.536 297.399 101.607 294.757 99.4462C293.133 98.1187 287.761 100.333 286.393 99.3612C287.479 97.3968 288.173 96.9781 287.917 95.1056C286.486 93.8256 287.142 94.0831 285.312 93.9656C274.786 99.8712 268.146 103.059 281.402 111.385L281.314 112.172L279.59 112.604C278.722 111.939 277.872 111.254 277.035 110.547C271.376 113.08 251.749 111.269 250.475 104.953L251.193 104.346L253.954 105.573L254.729 105.098L254.36 102.517L254.96 102.316C255.859 103.284 257.084 104.603 258.071 105.452C259.732 106.875 261.9 107.565 264.08 107.367C266.828 107.113 269.058 105.561 268.74 102.621L267.378 101.881C265.167 101.688 263.262 103.131 261.35 104.284C261.812 102.905 262.131 102.206 262.756 100.924L262.175 99.7081C246.558 90.3256 250.712 118.76 226.494 93.1612C223.746 92.7762 221.703 92.1787 219.061 91.4456C215.744 87.8362 212.514 85.4606 209.004 82.2344C208.123 81.4237 209.647 79.7543 206.93 77.5543C204.731 77.2512 199.99 76.2562 198.328 77.2081L198.116 78.2975C201.258 81.6393 202.276 79.1281 204.744 81.5237C204.075 83.2168 201.527 84.17 199.909 84.7275C197.629 84.2868 196.911 83.7619 194.924 82.5306C193.6 79.7475 197.623 78.0318 194.624 74.6C194.031 73.9175 195.649 73.0956 195.824 71.6069C192.994 70.6719 192.251 70.5331 189.271 70.4044C187.228 71.6994 187.572 71.1094 186.597 73.1719C186.91 75.1231 189.44 76.7681 191.114 78.4056L190.183 79.0012C186.216 78.9775 187.866 78.8006 185.304 75.8144C183.699 73.9469 182.787 70.26 179.976 71.3325L179.601 72.7806L181.713 75.6C181.863 77.565 182.031 76.8456 181.082 78.53C177.071 79.2069 176.953 74.7425 173.024 80.6456C172.386 81.6037 167.039 87.3031 166.24 87.4144C165.678 85.7525 165.215 83.4775 164.054 82.465C157.126 85.0637 166.983 102.139 168.245 105.773L167.82 106.441L165.147 107.012C162.373 106.097 163.972 104.117 161.305 101.491C157.201 97.4506 148.912 100.505 142.984 99.3968C138.112 98.4856 139.486 96.67 136.363 96.6243L135.613 97.4906C135.557 99.4856 137.443 103.184 138.318 105.176C136.225 107.186 133.92 110.098 130.828 109.351C130.484 105.802 135.113 103.614 133.239 99.4718L131.428 98.7881C128.604 99.4725 128.923 102.417 127.555 102.539C121.627 103.067 121.808 101.929 115.986 104.761C118.085 107.361 119.484 109.821 121.19 112.427C123.17 115.461 129.085 110.052 131.946 112.881L131.634 113.854C128.386 115.107 125.8 118.255 123.239 120.705C114.906 128.679 116.986 117.759 107.453 128.587C107.197 130.454 107.603 130.224 109.14 132.241C108.853 133.715 107.816 134.754 107.141 135.962C102.194 144.832 101.369 137.144 95.4913 145.543C87.2083 148.426 86.7274 151.274 77.4137 149.659C76.5392 148.099 78.8442 148.606 78.9004 145.222C76.9827 145.05 77.0639 146.23 75.2774 147.069C72.9412 148.168 70.3114 147.286 69.5868 150.2L70.2114 150.902L72.9849 150.877L74.103 152.448C85.3219 155.841 83.9226 162.072 94.0358 153.607L94.548 154.882C94.3544 154.994 94.1732 155.113 93.9921 155.241C93.5611 155.55 91.8495 157.584 91.4747 158.154C89.0573 161.816 82.5859 164.729 81.8987 169.063L81.8675 169.265C79.8624 168.237 82.0049 166.692 80.006 164.51C78.6193 165.708 78.5818 167.336 78.0446 169.367L77.5636 169.611L77.4824 167.559C75.6584 165.626 70.3863 165.752 68.2874 167.247C65.9887 172.076 63.3652 186.261 64.8144 191.426C74.178 192.772 69.7804 195.019 71.3233 200.367C73.0224 200.444 73.6095 196.034 75.8833 195.29C78.4694 204.895 72.9287 201.037 71.4045 203.071C59.8484 218.469 64.0898 221.888 44.8816 215.58Z" fill="#C4F5FC"/>
<path d="M538.604 250H513.237C514.205 248.568 515.386 247.168 515.429 245.462C513.849 244.217 510.676 245.536 507.496 244.726L507.009 243.621L507.927 241.64C511.132 240.427 513.131 239.825 516.454 238.994L518.09 240.308C519.115 239.048 517.672 235.608 520.214 234.44C523.094 233.118 526.792 233.117 529.378 231.369C529.671 231.17 529.696 228.67 529.728 228.135C533.494 224.3 533.8 230.629 537.823 220.61L538.579 220.305C541.783 222.198 547.868 226.037 547.662 230.146C546.069 232.052 545.644 231.313 542.783 232.262C541.059 234.79 544.326 239.573 540.815 242.464C539.016 243.948 538.873 247.674 538.604 250Z" fill="#C4F5FC"/>
<path d="M94.548 154.882L94.0358 153.607C96.6781 151.337 102.375 143.829 106.304 146.852C107.235 153.407 99.2204 152.252 94.548 154.882Z" fill="#C4F5FC"/>
<path d="M980.574 74.4769C980.088 76.6819 980.523 76.0382 978.892 77.5413C977.338 77.652 975.806 77.1188 974.656 76.0669C974.245 75.6932 973.89 75.047 973.669 74.5482C974.306 71.5638 976.328 72.2669 979.053 72.3863L980.574 74.4769Z" fill="#C4F5FC"/>
<path d="M842.939 56.7358C844.695 57.527 845.169 57.8151 846.7 58.9833L846.649 59.8451C844.922 59.8783 843.961 58.8801 842.604 57.8083L842.939 56.7358Z" fill="#C4F5FC"/>
<path d="M519.44 162.956L518.865 162.939C516.935 161.776 515.673 159.269 514.467 157.302C514.611 153.798 515.91 149.677 514.811 146.319C513.93 143.651 512.974 145.381 510.907 143.297C509.826 140.938 510.488 136.919 510.707 134.197C509.557 132.696 508.164 131.196 508.058 129.322C510.832 124.849 520.208 125.663 514.792 115.416C514.086 114.075 518.977 111.06 518.328 109.765C517.74 108.592 516.735 109.132 516.779 107.002L518.334 105.662C520.414 105.289 519.671 105.125 521.338 106.21C523.156 110.135 522.232 110.297 519.789 113.314C519.09 115.223 518.765 115.861 519.127 117.847L520.07 118.142C522.881 116.895 525.48 114.051 527.741 111.876C527.516 113.397 526.636 120.367 525.674 120.994C522.325 123.172 519.208 123.338 517.747 127.514C519.552 131.995 520.851 129.567 525.211 131.99C528.597 135.922 522.931 135.879 530.946 141.646C528.734 145.977 529.172 144.334 529.359 149.341C528.822 151.325 526.648 152.641 524.968 153.92C524.256 155.991 524.649 155.716 525.617 158.291C525.011 161.291 522.569 158.36 519.44 162.956Z" fill="#C4F5FC"/>
<path d="M1090.43 189.254C1088.2 189.676 1085.45 189.664 1084.19 187.545C1085.42 186.746 1087.84 186.736 1089.39 186.614C1090.92 185.516 1091.45 183.338 1092.29 181.362C1095.52 179.253 1097.31 182.407 1099.45 178.459L1098.47 175.436C1098.72 173.994 1099.83 173.104 1100.86 172.036C1103.14 172.873 1102.83 174.764 1104.28 175.947C1105.53 176.962 1107.32 177.918 1108.94 179.192C1111.19 183.269 1111.87 185.243 1115.55 188.036C1109.24 189.416 1104.84 181.507 1102.82 180.677C1101.05 180.577 1100.58 180.511 1099.08 181.512C1098.59 183.793 1099.6 184.478 1100.66 187.082C1097.26 187.85 1093.85 188.574 1090.43 189.254Z" fill="#C4F5FC"/>
<path d="M1220.81 211.436C1219.85 211.242 1220.16 211.451 1219.62 210.676C1225.09 205.199 1221.22 203.253 1224.69 197.639C1226.99 193.912 1229.5 197.902 1233.88 197.435C1235.94 196.83 1237.38 194.521 1238.73 192.773L1240.18 193.513C1240.59 196.561 1242.63 198.934 1241.98 200.617C1239.51 202.104 1235.41 201.565 1231.77 202.672C1230.14 204.363 1230.63 204.052 1230.44 206.967C1229.63 207.507 1229.18 207.579 1227.95 207.285C1225.52 206.706 1222.91 209.611 1220.81 211.436Z" fill="#C4F5FC"/>
<path d="M1220.01 199.5C1214.9 196.388 1213.78 195.929 1208.02 194.345C1208.79 191.401 1210.93 187.129 1212.28 184.249C1217.2 188.065 1218.24 184.232 1221.91 186.017C1223.55 189.472 1222.19 196.245 1220.01 199.5Z" fill="#C4F5FC"/>
<path d="M947.104 171.425L943.663 171.099C938.411 165.289 942.878 165.897 947.471 162.971C947.921 160.742 947.338 161.142 945.933 158.577L946.715 157.524C950.658 155.654 950.74 160.122 956.589 155.489C958.272 154.7 961.848 157.632 964.016 158.542C962.679 159.251 961.728 159.587 960.252 159.989C954.76 161.484 950.452 167.26 947.104 171.425Z" fill="#C4F5FC"/>
<path d="M1225.08 183.943C1221.6 181.656 1222.48 182.031 1217.97 182.373C1215.5 180.838 1212.54 179.628 1212.56 176.492C1215.27 172.665 1223.77 174.423 1226.8 173.469C1227.77 172.27 1229.17 170.158 1230.57 169.916C1232.34 171.127 1232.57 171.853 1233.47 173.821L1232.88 174.518C1229.68 174.288 1227.77 173.634 1225.4 176.05C1225.79 178.361 1229.5 177.29 1231 179.733C1229.99 181.522 1226.97 182.885 1225.08 183.943Z" fill="#C4F5FC"/>
<path d="M1040.77 221.89L1031.64 222.012C1029.91 220.531 1029.31 219.906 1027.88 218.131C1027.46 215.798 1027.37 216.63 1028.56 214.432C1029.15 213.928 1029.9 213.312 1030.59 212.966C1031.81 212.361 1033.22 212.284 1034.5 212.751C1037.66 213.915 1039.46 218.946 1040.77 221.89Z" fill="#C4F5FC"/>
<path d="M1170.07 170.169C1163.2 170.179 1158.94 164.319 1166.49 159.756L1167.51 159.388C1170.92 159.49 1172.85 163.486 1173.1 166.527C1172.06 169.176 1172.6 168.314 1170.07 170.169Z" fill="#C4F5FC"/>
<path d="M184.317 123.878C184.005 123.797 183.693 123.696 183.393 123.575C181.713 122.885 180.751 121.119 180.107 119.524C180.638 118.079 180.663 118.384 182.1 117.433L181.944 115.974C179.907 112.737 178.002 110.997 174.579 109.335C170.9 109.354 172.574 113.377 168.564 111.992L168.376 110.647L169.844 108.966C170.513 108.655 170.369 108.644 170.825 107.92L169.288 106.204C177.146 103.16 187.066 115.072 184.317 123.878Z" fill="#C4F5FC"/>
<path d="M1188.31 191.021L1187.31 190.928C1186.93 188.426 1190.01 189.642 1191.22 185.216C1190.2 182.803 1190.17 183.304 1187.85 181.456C1189.43 180.5 1189.58 180.816 1191.69 180.744C1194.05 180.648 1197 180.019 1198.5 181.846C1197.62 184.295 1198.15 185.643 1198.1 188.328C1195.43 191.406 1193.18 188.667 1188.31 191.021Z" fill="#C4F5FC"/>
<path d="M72.5351 190.792C71.342 190.307 70.3425 189.665 69.2431 189.006C68.6747 186.056 73.7719 186.892 70.836 176.934C71.6668 174.134 71.9667 174.452 74.1967 172.243C74.5902 171.985 75.3211 172.001 75.8145 171.966C76.6453 174.634 75.5771 175.724 77.7322 178.416C78.9503 179.934 74.9525 180.821 74.6464 183.433C74.4091 185.476 73.4471 188.805 72.5351 190.792Z" fill="#C4F5FC"/>
<path d="M1127.69 181.743C1125.81 181.414 1125.83 180.979 1124.56 179.678C1121.73 176.763 1118.84 180.361 1117.09 180.309C1118.04 178.028 1118.94 177.488 1120.91 175.961L1120.92 174.822C1118.76 173.424 1118.67 173.83 1117.72 171.819L1118.55 171.5C1122.06 173.109 1124.75 175.015 1127.55 177.866C1128.5 178.837 1127.93 180.266 1127.69 181.743Z" fill="#C4F5FC"/>
<path d="M1173.59 182.303C1173.24 182.343 1172.9 182.376 1172.55 182.402C1163.11 183.1 1167.15 175.105 1170.99 170.912C1176.35 176.924 1170.9 175.938 1169.44 179.111L1169.87 180.235C1171.38 180.389 1171.97 180.438 1173.45 180.931L1173.59 182.303Z" fill="#C4F5FC"/>
<path d="M1010.39 222.3C1010.03 222.278 1009.66 222.237 1009.3 222.177C1004.53 221.366 1003.64 218.989 1004.34 214.726C1007.23 214.749 1008.74 214.826 1010.59 217.189C1011.38 219.346 1011.06 220.071 1010.39 222.3Z" fill="#C4F5FC"/>
<path d="M967.063 155.761C965.146 155.396 964.773 155.272 963.106 154.262L962.914 153.257C963.905 151.549 966.735 150.365 968.576 149.399C969.935 148.76 970.207 148.681 971.68 148.951L971.803 150.204C970.387 153.007 969.377 153.752 967.063 155.761Z" fill="#C4F5FC"/>
<path d="M570.661 130.459C568.188 130.242 567.588 129.992 566.164 128.337C565.72 126.214 567.426 123.136 568.344 121.023C569.118 120.799 568.981 120.931 569.912 121.383C571.08 124.199 571.573 127.507 570.661 130.459Z" fill="#C4F5FC"/>
<path d="M1129.36 207.583C1127.9 208.179 1126.24 207.494 1125.62 206.045C1125.01 204.596 1125.67 202.922 1127.11 202.288C1128.06 201.871 1129.16 201.996 1129.99 202.616C1130.82 203.237 1131.25 204.256 1131.12 205.284C1130.99 206.313 1130.31 207.191 1129.36 207.583Z" fill="#C4F5FC"/>
<path d="M140.635 127.434C138.349 127.429 137.218 127.529 135.588 126.264C135.638 124.149 135.807 124.577 137.287 122.561C139.861 122.527 140.816 122.566 142.116 124.879C141.66 126.652 141.972 126.021 140.635 127.434Z" fill="#C4F5FC"/>
<path d="M506.528 124.816C504.11 125.049 499.401 125.219 497.708 123.451L498.445 122.427C500.962 122.389 505.616 122.075 507.74 122.957L507.758 123.939L506.528 124.816Z" fill="#C4F5FC"/>
<path d="M569.462 117.16C569.15 116.953 568.325 116.146 568.007 115.844C567.594 113.353 568.744 109.939 569.406 107.408C572.523 110.079 570.961 114.088 569.462 117.16Z" fill="#C4F5FC"/>
<path d="M1118.12 151.49C1115.05 151.365 1112.2 148.145 1112.13 145.011C1113.02 144.596 1113.77 144.412 1114.71 144.149C1115.21 144.652 1116.74 149.182 1118.12 151.49Z" fill="#C4F5FC"/>
</g>
<defs>
<clipPath id="clip0_180_3546">
<rect width="1279.3" height="250" fill="white" transform="matrix(-1 0 0 -1 1279.3 250)"/>
</clipPath>
</defs>
</svg>
